<svg width="570.8mm" height="776.2mm" viewBox="0 0 570.8 776.2" xmlns="http://www.w3.org/2000/svg" version="1.1" preserveAspectRatio="xMidYMid meet"><g id="svgGroup" stroke-linecap="round" fill-rule="evenodd" font-size="9pt" stroke="#000" stroke-width="0.25mm" fill="none" style="stroke:#000;stroke-width:0.25mm;fill:none"><path d="M 0 389.6 L 0 437.925 L 3.3 437.925 L 3.3 484.625 L 4.95 484.625 L 4.95 483.375 L 7.6 483.375 L 7.6 484.625 L 10.25 484.625 L 10.25 487.875 L 7.6 487.875 L 7.6 489.125 L 4.95 489.125 L 4.95 487.875 L 3.3 487.875 L 3.3 534.575 L 0 534.575 L 0 631.225 L 3.3 631.225 L 3.3 677.925 L 4.95 677.925 L 4.95 676.675 L 7.6 676.675 L 7.6 677.925 L 10.25 677.925 L 10.25 681.175 L 7.6 681.175 L 7.6 682.425 L 4.95 682.425 L 4.95 681.175 L 3.3 681.175 L 3.3 727.875 L 0 727.875 L 0 776.2 L 32.7 776.2 L 32.7 772.9 L 63.775 772.9 L 63.775 771.25 L 62.525 771.25 L 62.525 768.6 L 63.775 768.6 L 63.775 765.95 L 67.025 765.95 L 67.025 768.6 L 68.275 768.6 L 68.275 771.25 L 67.025 771.25 L 67.025 772.9 L 98.1 772.9 L 98.1 776.2 L 163.5 776.2 L 163.5 772.9 L 194.575 772.9 L 194.575 771.25 L 193.325 771.25 L 193.325 768.6 L 194.575 768.6 L 194.575 765.95 L 197.825 765.95 L 197.825 768.6 L 199.075 768.6 L 199.075 771.25 L 197.825 771.25 L 197.825 772.9 L 228.9 772.9 L 228.9 776.2 L 261.6 776.2 L 261.6 727.875 L 258.3 727.875 L 258.3 681.175 L 256.65 681.175 L 256.65 682.425 L 254 682.425 L 254 681.175 L 251.35 681.175 L 251.35 677.925 L 254 677.925 L 254 676.675 L 256.65 676.675 L 256.65 677.925 L 258.3 677.925 L 258.3 631.225 L 261.6 631.225 L 261.6 534.575 L 258.3 534.575 L 258.3 487.875 L 256.65 487.875 L 256.65 489.125 L 254 489.125 L 254 487.875 L 251.35 487.875 L 251.35 484.625 L 254 484.625 L 254 483.375 L 256.65 483.375 L 256.65 484.625 L 258.3 484.625 L 258.3 437.925 L 261.6 437.925 L 261.6 389.6 L 228.9 389.6 L 228.9 392.9 L 197.825 392.9 L 197.825 394.55 L 199.075 394.55 L 199.075 397.2 L 197.825 397.2 L 197.825 399.85 L 194.575 399.85 L 194.575 397.2 L 193.325 397.2 L 193.325 394.55 L 194.575 394.55 L 194.575 392.9 L 163.5 392.9 L 163.5 389.6 L 98.1 389.6 L 98.1 392.9 L 67.025 392.9 L 67.025 394.55 L 68.275 394.55 L 68.275 397.2 L 67.025 397.2 L 67.025 399.85 L 63.775 399.85 L 63.775 397.2 L 62.525 397.2 L 62.525 394.55 L 63.775 394.55 L 63.775 392.9 L 32.7 392.9 L 32.7 389.6 L 0 389.6 Z" id="front_outsideCutPath" stroke="#FF0000" stroke-width="0.1" style="stroke:#FF0000;stroke-width:0.1" vector-effect="non-scaling-stroke"/><path d="M 168.929 602.66 L 164.688 602.66 L 164.688 584.547 Q 164.688 581.124 163.13 579.438 A 4.781 4.781 0 0 0 161.169 578.187 Q 160.399 577.915 159.451 577.813 A 11.243 11.243 0 0 0 158.25 577.752 Q 153.856 577.752 151.812 580.128 Q 149.945 582.298 149.784 587.05 A 27.168 27.168 0 0 0 149.769 587.971 L 149.769 602.66 L 145.528 602.66 L 145.528 574.661 L 148.977 574.661 L 149.666 578.493 L 149.871 578.493 A 8.587 8.587 0 0 1 153.234 575.432 A 10.326 10.326 0 0 1 153.524 575.286 A 11.484 11.484 0 0 1 157.61 574.197 A 13.886 13.886 0 0 1 158.761 574.15 A 16.743 16.743 0 0 1 161.611 574.376 Q 164.598 574.893 166.374 576.589 A 7.349 7.349 0 0 1 168.165 579.401 Q 168.594 580.559 168.782 581.994 A 18.507 18.507 0 0 1 168.929 584.394 L 168.929 602.66 Z M 87.46 574.661 L 87.46 577.956 L 80.332 577.956 L 80.332 602.66 L 76.091 602.66 L 76.091 577.956 L 71.084 577.956 L 71.084 576.04 L 76.091 574.507 L 76.091 572.949 Q 76.091 564.039 82.812 562.821 A 12.89 12.89 0 0 1 85.109 562.628 A 13.656 13.656 0 0 1 87.042 562.776 Q 87.982 562.91 89.028 563.168 A 27.452 27.452 0 0 1 90.321 563.522 L 89.222 566.92 Q 87.48 566.357 86.099 566.194 A 9.12 9.12 0 0 0 85.033 566.128 A 5.719 5.719 0 0 0 83.654 566.284 A 3.673 3.673 0 0 0 81.482 567.725 A 4.907 4.907 0 0 0 80.833 569.033 Q 80.403 570.31 80.342 572.209 A 20.022 20.022 0 0 0 80.332 572.847 L 80.332 574.661 L 87.46 574.661 Z M 190.516 599.16 L 190.516 602.404 A 4.171 4.171 0 0 1 190.021 602.601 Q 189.407 602.804 188.485 602.954 Q 187.144 603.171 186.071 603.171 Q 179.591 603.171 178.28 597.727 A 13.33 13.33 0 0 1 177.947 594.613 L 177.947 577.956 L 173.936 577.956 L 173.936 575.912 L 177.947 574.15 L 179.735 568.172 L 182.188 568.172 L 182.188 574.661 L 190.311 574.661 L 190.311 577.956 L 182.188 577.956 L 182.188 594.434 A 8.54 8.54 0 0 0 182.311 595.934 Q 182.572 597.397 183.388 598.317 A 3.94 3.94 0 0 0 185.81 599.606 A 5.668 5.668 0 0 0 186.684 599.671 A 13.927 13.927 0 0 0 188.724 599.525 A 12.842 12.842 0 0 0 188.855 599.505 Q 189.855 599.346 190.459 599.176 A 6.373 6.373 0 0 0 190.516 599.16 Z M 108.689 574.456 L 108.102 578.39 A 18.69 18.69 0 0 0 106.758 578.142 Q 106.087 578.045 105.491 578.018 A 9.947 9.947 0 0 0 105.036 578.007 Q 101.638 578.007 99.224 580.766 A 9.684 9.684 0 0 0 96.888 586.204 A 12.872 12.872 0 0 0 96.81 587.638 L 96.81 602.66 L 92.569 602.66 L 92.569 574.661 L 96.069 574.661 L 96.554 579.847 L 96.759 579.847 A 14.321 14.321 0 0 1 98.36 577.559 A 10.94 10.94 0 0 1 100.514 575.631 A 8.454 8.454 0 0 1 105.343 574.15 A 19.469 19.469 0 0 1 107.085 574.224 A 14.21 14.21 0 0 1 108.689 574.456 Z M 137.704 592.896 A 21.905 21.905 0 0 0 138.094 588.635 Q 138.094 581.967 134.632 578.058 A 11.102 11.102 0 0 0 129.478 574.734 A 14.25 14.25 0 0 0 125.295 574.15 A 16.471 16.471 0 0 0 122.336 574.403 A 11.217 11.217 0 0 0 115.791 577.969 A 11.716 11.716 0 0 0 114.352 579.964 Q 112.368 583.422 112.368 588.635 Q 112.368 593.054 113.952 596.35 A 13.939 13.939 0 0 0 114.26 596.954 A 11.481 11.481 0 0 0 118.448 601.408 A 11.808 11.808 0 0 0 121.159 602.613 A 13.618 13.618 0 0 0 125.116 603.171 A 16.467 16.467 0 0 0 127.991 602.931 A 11.306 11.306 0 0 0 134.645 599.326 A 11.83 11.83 0 0 0 136.053 597.391 Q 137.203 595.425 137.704 592.896 Z M 116.762 588.635 A 21.475 21.475 0 0 0 116.966 591.703 Q 117.424 594.867 118.908 596.81 A 6.951 6.951 0 0 0 123.435 599.476 A 10.532 10.532 0 0 0 125.218 599.62 A 9.85 9.85 0 0 0 127.817 599.297 A 6.855 6.855 0 0 0 131.541 596.822 A 9.104 9.104 0 0 0 132.958 594.061 Q 133.375 592.785 133.558 591.228 A 22.338 22.338 0 0 0 133.7 588.635 A 21.16 21.16 0 0 0 133.499 585.619 Q 133.042 582.451 131.541 580.524 A 6.976 6.976 0 0 0 127.204 577.936 A 10.696 10.696 0 0 0 125.167 577.752 A 10.093 10.093 0 0 0 122.654 578.046 A 6.754 6.754 0 0 0 118.882 580.485 Q 116.762 583.219 116.762 588.635 Z" id="front_labelLayer" stroke="#777777" fill="#777777" style="stroke:#777777;fill:#777777" vector-effect="non-scaling-stroke"/><path d="M 267.9 389.6 L 267.9 437.925 L 264.6 437.925 L 264.6 484.625 L 267.85 484.625 L 267.85 486.25 L 267.85 487.875 L 264.6 487.875 L 264.6 534.575 L 267.9 534.575 L 267.9 631.225 L 264.6 631.225 L 264.6 677.925 L 267.85 677.925 L 267.85 679.55 L 267.85 681.175 L 264.6 681.175 L 264.6 727.875 L 267.9 727.875 L 267.9 776.2 L 269.8 776.2 L 269.8 772.9 L 273.375 772.9 L 273.375 771.25 L 272.125 771.25 L 272.125 768.6 L 273.375 768.6 L 273.375 765.95 L 276.625 765.95 L 276.625 768.6 L 277.875 768.6 L 277.875 771.25 L 276.625 771.25 L 276.625 772.9 L 280.2 772.9 L 280.2 776.2 L 290.6 776.2 L 290.6 772.9 L 294.175 772.9 L 294.175 771.25 L 292.925 771.25 L 292.925 768.6 L 294.175 768.6 L 294.175 765.95 L 297.425 765.95 L 297.425 768.6 L 298.675 768.6 L 298.675 771.25 L 297.425 771.25 L 297.425 772.9 L 301 772.9 L 301 776.2 L 302.9 776.2 L 302.9 727.875 L 306.2 727.875 L 306.2 681.175 L 302.95 681.175 L 302.95 679.55 L 302.95 677.925 L 306.2 677.925 L 306.2 631.225 L 302.9 631.225 L 302.9 534.575 L 306.2 534.575 L 306.2 487.875 L 302.95 487.875 L 302.95 486.25 L 302.95 484.625 L 306.2 484.625 L 306.2 437.925 L 302.9 437.925 L 302.9 389.6 L 301 389.6 L 301 392.9 L 297.425 392.9 L 297.425 394.55 L 298.675 394.55 L 298.675 397.2 L 297.425 397.2 L 297.425 399.85 L 294.175 399.85 L 294.175 397.2 L 292.925 397.2 L 292.925 394.55 L 294.175 394.55 L 294.175 392.9 L 290.6 392.9 L 290.6 389.6 L 280.2 389.6 L 280.2 392.9 L 276.625 392.9 L 276.625 394.55 L 277.875 394.55 L 277.875 397.2 L 276.625 397.2 L 276.625 399.85 L 273.375 399.85 L 273.375 397.2 L 272.125 397.2 L 272.125 394.55 L 273.375 394.55 L 273.375 392.9 L 269.8 392.9 L 269.8 389.6 L 267.9 389.6 Z" id="left_outsideCutPath" stroke="#FF0000" stroke-width="0.1" style="stroke:#FF0000;stroke-width:0.1" vector-effect="non-scaling-stroke"/><path d="M 288.36 581.59 L 288.36 582.114 L 287.226 582.114 L 287.226 586.042 L 286.552 586.042 L 286.552 582.114 L 285.755 582.114 L 285.755 581.809 L 286.552 581.565 L 286.552 581.318 A 2.733 2.733 0 0 1 286.616 580.698 Q 286.854 579.676 287.986 579.676 A 2.172 2.172 0 0 1 288.293 579.7 Q 288.532 579.734 288.815 579.819 L 288.64 580.359 A 3.275 3.275 0 0 0 288.385 580.287 Q 288.257 580.257 288.143 580.243 A 1.45 1.45 0 0 0 287.974 580.233 A 0.909 0.909 0 0 0 287.754 580.258 A 0.584 0.584 0 0 0 287.409 580.487 Q 287.243 580.717 287.228 581.2 A 3.184 3.184 0 0 0 287.226 581.301 L 287.226 581.59 L 288.36 581.59 Z M 285.203 583.511 L 285.203 583.938 L 282.136 583.938 Q 282.156 584.722 282.532 585.128 A 1.225 1.225 0 0 0 283.175 585.491 A 1.857 1.857 0 0 0 283.59 585.534 A 3.562 3.562 0 0 0 284.924 585.27 A 4.082 4.082 0 0 0 285.012 585.234 L 285.012 585.835 A 4.048 4.048 0 0 1 284.643 585.974 A 3.096 3.096 0 0 1 284.336 586.056 A 2.831 2.831 0 0 1 284.055 586.1 Q 283.834 586.124 283.566 586.124 A 2.621 2.621 0 0 1 282.91 586.046 A 1.856 1.856 0 0 1 282.008 585.522 Q 281.47 584.956 281.439 583.974 A 3.852 3.852 0 0 1 281.437 583.853 A 3.541 3.541 0 0 1 281.503 583.15 Q 281.623 582.553 281.967 582.142 A 1.728 1.728 0 0 1 283.227 581.514 A 2.384 2.384 0 0 1 283.391 581.509 A 2.055 2.055 0 0 1 283.97 581.586 A 1.563 1.563 0 0 1 284.715 582.059 A 1.886 1.886 0 0 1 285.143 582.921 A 2.745 2.745 0 0 1 285.203 583.511 Z M 291.22 585.486 L 291.22 586.002 A 0.663 0.663 0 0 1 291.141 586.033 Q 291.043 586.065 290.897 586.089 Q 290.697 586.121 290.536 586.123 A 1.727 1.727 0 0 1 290.513 586.124 A 1.761 1.761 0 0 1 289.994 586.054 Q 289.423 585.878 289.274 585.258 A 2.12 2.12 0 0 1 289.221 584.763 L 289.221 582.114 L 288.583 582.114 L 288.583 581.789 L 289.221 581.509 L 289.505 580.558 L 289.895 580.558 L 289.895 581.59 L 291.187 581.59 L 291.187 582.114 L 289.895 582.114 L 289.895 584.734 A 1.358 1.358 0 0 0 289.915 584.973 Q 289.938 585.103 289.989 585.207 A 0.654 0.654 0 0 0 290.086 585.352 A 0.626 0.626 0 0 0 290.471 585.557 A 0.901 0.901 0 0 0 290.61 585.567 Q 290.789 585.567 290.955 585.541 A 3.648 3.648 0 0 0 291.053 585.524 Q 291.146 585.506 291.21 585.488 A 1.018 1.018 0 0 0 291.22 585.486 Z M 280.255 579.721 L 280.255 586.042 L 279.58 586.042 L 279.58 579.721 L 280.255 579.721 Z M 282.152 583.389 L 284.48 583.389 A 2.298 2.298 0 0 0 284.452 583.02 Q 284.42 582.822 284.35 582.663 A 1.043 1.043 0 0 0 284.195 582.412 A 0.924 0.924 0 0 0 283.639 582.096 A 1.386 1.386 0 0 0 283.383 582.073 A 1.329 1.329 0 0 0 282.999 582.126 A 1.027 1.027 0 0 0 282.528 582.423 A 1.332 1.332 0 0 0 282.263 582.869 Q 282.179 583.1 282.152 583.389 Z" id="left_labelLayer" stroke="#777777" fill="#777777" style="stroke:#777777;fill:#777777" vector-effect="non-scaling-stroke"/><path d="M 312.5 737.9 L 312.5 739.8 L 309.2 739.8 L 309.2 743.375 L 312.45 743.375 L 312.45 745 L 312.45 746.625 L 309.2 746.625 L 309.2 750.2 L 312.5 750.2 L 312.5 760.6 L 309.2 760.6 L 309.2 764.175 L 312.45 764.175 L 312.45 765.8 L 312.45 767.425 L 309.2 767.425 L 309.2 771 L 312.5 771 L 312.5 772.9 L 341.9 772.9 L 341.9 776.2 L 372.975 776.2 L 372.975 772.95 L 374.6 772.95 L 376.225 772.95 L 376.225 776.2 L 407.3 776.2 L 407.3 772.9 L 472.7 772.9 L 472.7 776.2 L 503.775 776.2 L 503.775 772.95 L 505.4 772.95 L 507.025 772.95 L 507.025 776.2 L 538.1 776.2 L 538.1 772.9 L 567.5 772.9 L 567.5 771 L 570.8 771 L 570.8 767.425 L 567.55 767.425 L 567.55 765.8 L 567.55 764.175 L 570.8 764.175 L 570.8 760.6 L 567.5 760.6 L 567.5 750.2 L 570.8 750.2 L 570.8 746.625 L 567.55 746.625 L 567.55 745 L 567.55 743.375 L 570.8 743.375 L 570.8 739.8 L 567.5 739.8 L 567.5 737.9 L 538.1 737.9 L 538.1 734.6 L 507.025 734.6 L 507.025 737.85 L 505.4 737.85 L 503.775 737.85 L 503.775 734.6 L 472.7 734.6 L 472.7 737.9 L 407.3 737.9 L 407.3 734.6 L 376.225 734.6 L 376.225 737.85 L 374.6 737.85 L 372.975 737.85 L 372.975 734.6 L 341.9 734.6 L 341.9 737.9 L 312.5 737.9 Z" id="top_outsideCutPath" stroke="#FF0000" stroke-width="0.1" style="stroke:#FF0000;stroke-width:0.1" vector-effect="non-scaling-stroke"/><path d="M 442.99 756.57 L 442.941 756.57 A 6.382 6.382 0 0 1 442.983 757.042 A 5.348 5.348 0 0 1 442.99 757.309 L 442.99 759.142 L 442.316 759.142 L 442.316 752.69 L 442.864 752.69 L 442.957 753.3 L 442.99 753.3 Q 443.25 752.934 443.595 752.772 A 1.689 1.689 0 0 1 444.079 752.63 A 2.186 2.186 0 0 1 444.387 752.609 Q 445.273 752.609 445.754 753.214 Q 446.148 753.709 446.22 754.53 A 4.391 4.391 0 0 1 446.236 754.912 Q 446.236 755.686 445.992 756.217 A 1.895 1.895 0 0 1 445.746 756.617 A 1.596 1.596 0 0 1 444.612 757.213 A 2.287 2.287 0 0 1 444.387 757.224 A 2.046 2.046 0 0 1 443.873 757.161 A 1.78 1.78 0 0 1 443.593 757.064 A 1.494 1.494 0 0 1 442.99 756.57 Z M 436.401 756.586 L 436.401 757.102 A 0.663 0.663 0 0 1 436.322 757.133 Q 436.224 757.166 436.078 757.19 Q 435.879 757.222 435.717 757.224 A 1.727 1.727 0 0 1 435.694 757.224 A 1.761 1.761 0 0 1 435.175 757.154 Q 434.604 756.978 434.455 756.358 A 2.12 2.12 0 0 1 434.402 755.863 L 434.402 753.214 L 433.764 753.214 L 433.764 752.889 L 434.402 752.609 L 434.686 751.658 L 435.076 751.658 L 435.076 752.69 L 436.368 752.69 L 436.368 753.214 L 435.076 753.214 L 435.076 755.835 A 1.358 1.358 0 0 0 435.096 756.073 Q 435.119 756.204 435.17 756.308 A 0.654 0.654 0 0 0 435.267 756.452 A 0.626 0.626 0 0 0 435.652 756.657 A 0.901 0.901 0 0 0 435.791 756.667 Q 435.97 756.668 436.137 756.641 A 3.648 3.648 0 0 0 436.234 756.624 Q 436.327 756.607 436.392 756.589 A 1.018 1.018 0 0 0 436.401 756.586 Z M 440.585 756.613 A 1.881 1.881 0 0 0 440.809 756.305 Q 441.133 755.75 441.133 754.913 A 3.958 3.958 0 0 0 441.132 754.805 Q 441.122 754.435 441.042 754.12 A 2.1 2.1 0 0 0 440.583 753.231 A 1.765 1.765 0 0 0 439.763 752.702 A 2.266 2.266 0 0 0 439.098 752.609 A 2.619 2.619 0 0 0 438.628 752.649 A 1.784 1.784 0 0 0 437.587 753.216 Q 437.225 753.62 437.104 754.235 A 3.502 3.502 0 0 0 437.042 754.913 A 3.374 3.374 0 0 0 437.085 755.459 A 2.495 2.495 0 0 0 437.294 756.139 A 2.217 2.217 0 0 0 437.343 756.235 A 1.826 1.826 0 0 0 438.009 756.944 A 1.878 1.878 0 0 0 438.44 757.135 A 2.166 2.166 0 0 0 439.07 757.224 A 2.619 2.619 0 0 0 439.527 757.186 A 1.798 1.798 0 0 0 440.585 756.613 Z M 437.741 754.913 A 3.415 3.415 0 0 0 437.774 755.4 Q 437.847 755.904 438.082 756.213 A 1.105 1.105 0 0 0 438.802 756.636 A 1.675 1.675 0 0 0 439.086 756.659 A 1.566 1.566 0 0 0 439.499 756.608 A 1.09 1.09 0 0 0 440.091 756.215 Q 440.435 755.77 440.435 754.913 A 3.365 3.365 0 0 0 440.403 754.433 Q 440.368 754.189 440.293 753.991 A 1.389 1.389 0 0 0 440.091 753.623 A 1.109 1.109 0 0 0 439.402 753.211 A 1.701 1.701 0 0 0 439.078 753.182 Q 438.416 753.182 438.078 753.617 A 1.394 1.394 0 0 0 437.862 754.035 Q 437.798 754.228 437.768 754.463 A 3.564 3.564 0 0 0 437.741 754.912 Z M 442.99 754.762 L 442.99 754.913 Q 442.99 755.851 443.303 756.255 A 0.978 0.978 0 0 0 443.799 756.59 Q 444.02 756.659 444.306 756.659 Q 444.861 756.659 445.185 756.227 A 1.344 1.344 0 0 0 445.21 756.192 A 1.63 1.63 0 0 0 445.434 755.716 Q 445.537 755.366 445.537 754.904 Q 445.537 754.072 445.21 753.627 A 1.049 1.049 0 0 0 444.443 753.19 A 1.451 1.451 0 0 0 444.29 753.182 A 1.943 1.943 0 0 0 443.927 753.213 Q 443.725 753.252 443.57 753.337 A 0.891 0.891 0 0 0 443.303 753.56 Q 442.998 753.938 442.99 754.762 Z" id="top_labelLayer" stroke="#777777" fill="#777777" style="stroke:#777777;fill:#777777" vector-effect="non-scaling-stroke"/><path d="M 0 0 L 0 48.325 L 3.3 48.325 L 3.3 95.025 L 4.95 95.025 L 4.95 93.775 L 7.6 93.775 L 7.6 95.025 L 10.25 95.025 L 10.25 98.275 L 7.6 98.275 L 7.6 99.525 L 4.95 99.525 L 4.95 98.275 L 3.3 98.275 L 3.3 144.975 L 0 144.975 L 0 241.625 L 3.3 241.625 L 3.3 288.325 L 4.95 288.325 L 4.95 287.075 L 7.6 287.075 L 7.6 288.325 L 10.25 288.325 L 10.25 291.575 L 7.6 291.575 L 7.6 292.825 L 4.95 292.825 L 4.95 291.575 L 3.3 291.575 L 3.3 338.275 L 0 338.275 L 0 386.6 L 32.7 386.6 L 32.7 383.3 L 63.775 383.3 L 63.775 381.65 L 62.525 381.65 L 62.525 379 L 63.775 379 L 63.775 376.35 L 67.025 376.35 L 67.025 379 L 68.275 379 L 68.275 381.65 L 67.025 381.65 L 67.025 383.3 L 98.1 383.3 L 98.1 386.6 L 163.5 386.6 L 163.5 383.3 L 194.575 383.3 L 194.575 381.65 L 193.325 381.65 L 193.325 379 L 194.575 379 L 194.575 376.35 L 197.825 376.35 L 197.825 379 L 199.075 379 L 199.075 381.65 L 197.825 381.65 L 197.825 383.3 L 228.9 383.3 L 228.9 386.6 L 261.6 386.6 L 261.6 338.275 L 258.3 338.275 L 258.3 291.575 L 256.65 291.575 L 256.65 292.825 L 254 292.825 L 254 291.575 L 251.35 291.575 L 251.35 288.325 L 254 288.325 L 254 287.075 L 256.65 287.075 L 256.65 288.325 L 258.3 288.325 L 258.3 241.625 L 261.6 241.625 L 261.6 144.975 L 258.3 144.975 L 258.3 98.275 L 256.65 98.275 L 256.65 99.525 L 254 99.525 L 254 98.275 L 251.35 98.275 L 251.35 95.025 L 254 95.025 L 254 93.775 L 256.65 93.775 L 256.65 95.025 L 258.3 95.025 L 258.3 48.325 L 261.6 48.325 L 261.6 0 L 228.9 0 L 228.9 3.3 L 197.825 3.3 L 197.825 4.95 L 199.075 4.95 L 199.075 7.6 L 197.825 7.6 L 197.825 10.25 L 194.575 10.25 L 194.575 7.6 L 193.325 7.6 L 193.325 4.95 L 194.575 4.95 L 194.575 3.3 L 163.5 3.3 L 163.5 0 L 98.1 0 L 98.1 3.3 L 67.025 3.3 L 67.025 4.95 L 68.275 4.95 L 68.275 7.6 L 67.025 7.6 L 67.025 10.25 L 63.775 10.25 L 63.775 7.6 L 62.525 7.6 L 62.525 4.95 L 63.775 4.95 L 63.775 3.3 L 32.7 3.3 L 32.7 0 L 0 0 Z" id="back_outsideCutPath" stroke="#FF0000" stroke-width="0.1" style="stroke:#FF0000;stroke-width:0.1" vector-effect="non-scaling-stroke"/><path d="M 166.617 198.588 L 166.821 198.588 A 25.105 25.105 0 0 1 167.442 197.748 Q 168.482 196.397 170.168 194.5 L 179.211 184.92 L 184.244 184.92 L 172.901 196.851 L 185.036 212.92 L 179.901 212.92 L 170.014 199.686 L 166.821 202.445 L 166.821 212.92 L 162.631 212.92 L 162.631 173.169 L 166.821 173.169 L 166.821 194.245 A 28.261 28.261 0 0 1 166.808 195.043 Q 166.771 196.352 166.624 198.482 A 175.258 175.258 0 0 1 166.617 198.588 Z M 80.805 209.318 L 80.498 209.318 L 79.604 212.92 L 76.564 212.92 L 76.564 173.169 L 80.805 173.169 L 80.805 182.825 A 88.417 88.417 0 0 1 80.757 185.813 Q 80.709 187.226 80.613 188.483 A 52.989 52.989 0 0 1 80.6 188.65 L 80.805 188.65 A 9.642 9.642 0 0 1 87.843 184.563 A 14.484 14.484 0 0 1 89.593 184.46 A 12.961 12.961 0 0 1 93.241 184.947 A 9.703 9.703 0 0 1 98.164 188.229 Q 100.609 191.246 101.096 196.27 A 27.22 27.22 0 0 1 101.217 198.894 Q 101.217 203.762 99.684 207.096 A 11.92 11.92 0 0 1 98.138 209.611 A 10.039 10.039 0 0 1 91.003 213.363 A 14.383 14.383 0 0 1 89.593 213.431 A 12.863 12.863 0 0 1 86.361 213.036 A 11.192 11.192 0 0 1 84.598 212.422 Q 82.338 211.412 80.805 209.318 Z M 128.986 212.92 L 125.844 212.92 L 125.001 208.934 L 124.796 208.934 A 17.58 17.58 0 0 1 123.374 210.527 Q 122.609 211.279 121.845 211.803 A 7.813 7.813 0 0 1 120.62 212.498 A 9.78 9.78 0 0 1 118.6 213.136 Q 117.619 213.338 116.485 213.402 A 19.084 19.084 0 0 1 115.421 213.431 Q 111.257 213.431 108.894 211.285 A 6.97 6.97 0 0 1 106.791 207.609 A 10.671 10.671 0 0 1 106.53 205.179 Q 106.53 196.971 119.234 196.324 A 41.425 41.425 0 0 1 120.096 196.289 L 124.848 196.135 L 124.848 194.398 A 12.181 12.181 0 0 0 124.729 192.637 Q 124.597 191.736 124.318 191.014 A 4.733 4.733 0 0 0 123.43 189.532 A 4.305 4.305 0 0 0 121.666 188.381 Q 120.508 187.96 118.895 187.96 A 13.807 13.807 0 0 0 115.718 188.357 Q 114.26 188.702 112.673 189.347 A 28.401 28.401 0 0 0 110.976 190.106 L 109.673 186.862 A 19.553 19.553 0 0 1 113.447 185.311 A 22.256 22.256 0 0 1 114.207 185.099 A 19.64 19.64 0 0 1 119.151 184.46 Q 122.282 184.46 124.4 185.33 A 7.218 7.218 0 0 1 126.572 186.683 A 6.715 6.715 0 0 1 128.305 189.356 Q 128.986 191.205 128.986 193.811 L 128.986 212.92 Z M 156.398 185.866 L 155.095 189.468 A 18.866 18.866 0 0 0 153.049 188.787 A 22.532 22.532 0 0 0 152.029 188.535 A 17.518 17.518 0 0 0 150.697 188.289 Q 150.047 188.196 149.469 188.173 A 9.401 9.401 0 0 0 149.092 188.165 Q 140.559 188.165 140.559 199.048 Q 140.559 204.208 142.641 206.967 A 6.735 6.735 0 0 0 147.005 209.575 A 10.26 10.26 0 0 0 148.811 209.726 A 17.752 17.752 0 0 0 153.707 209.014 A 21.918 21.918 0 0 0 155.989 208.219 L 155.989 211.974 A 12.063 12.063 0 0 1 153.038 213.019 Q 151.675 213.321 150.089 213.402 A 23.256 23.256 0 0 1 148.913 213.431 A 15.85 15.85 0 0 1 145.057 212.988 A 10.747 10.747 0 0 1 139.499 209.688 Q 136.619 206.455 136.227 200.907 A 25.642 25.642 0 0 1 136.165 199.099 A 23.399 23.399 0 0 1 136.527 194.844 Q 136.967 192.47 137.939 190.6 A 11.691 11.691 0 0 1 139.55 188.241 A 10.981 10.981 0 0 1 145.563 184.784 A 16.647 16.647 0 0 1 149.194 184.409 A 19.137 19.137 0 0 1 153.23 184.844 A 21.167 21.167 0 0 1 154.407 185.13 Q 155.608 185.462 156.398 185.866 Z M 88.98 188.012 Q 84.637 188.012 82.721 190.502 A 7.259 7.259 0 0 0 81.67 192.504 Q 80.805 194.93 80.805 198.894 Q 80.805 203.907 82.224 206.496 A 6.396 6.396 0 0 0 82.772 207.338 Q 84.535 209.617 88.208 209.852 A 13.636 13.636 0 0 0 89.082 209.88 A 8.454 8.454 0 0 0 91.483 209.558 A 6.099 6.099 0 0 0 94.907 207.031 Q 96.275 204.996 96.666 201.69 A 24.299 24.299 0 0 0 96.823 198.843 Q 96.823 193.661 95.101 190.981 A 7.035 7.035 0 0 0 94.907 190.694 A 6.184 6.184 0 0 0 90.969 188.202 A 9.808 9.808 0 0 0 88.98 188.012 Z M 124.745 201.679 L 124.745 199.15 L 120.505 199.329 A 31.138 31.138 0 0 0 118.017 199.509 Q 115.563 199.795 114.025 200.474 A 6.513 6.513 0 0 0 113.211 200.9 Q 110.976 202.292 110.976 205.23 A 6.061 6.061 0 0 0 111.126 206.621 Q 111.377 207.689 112.052 208.424 A 3.777 3.777 0 0 0 112.368 208.73 A 4.616 4.616 0 0 0 114.097 209.648 Q 114.782 209.851 115.602 209.908 A 9.538 9.538 0 0 0 116.264 209.931 Q 120.224 209.931 122.484 207.759 Q 124.745 205.588 124.745 201.679 Z" id="back_labelLayer" stroke="#777777" fill="#777777" style="stroke:#777777;fill:#777777" vector-effect="non-scaling-stroke"/><path d="M 267.9 0 L 267.9 48.325 L 264.6 48.325 L 264.6 95.025 L 267.85 95.025 L 267.85 96.65 L 267.85 98.275 L 264.6 98.275 L 264.6 144.975 L 267.9 144.975 L 267.9 241.625 L 264.6 241.625 L 264.6 288.325 L 267.85 288.325 L 267.85 289.95 L 267.85 291.575 L 264.6 291.575 L 264.6 338.275 L 267.9 338.275 L 267.9 386.6 L 269.8 386.6 L 269.8 383.3 L 273.375 383.3 L 273.375 381.65 L 272.125 381.65 L 272.125 379 L 273.375 379 L 273.375 376.35 L 276.625 376.35 L 276.625 379 L 277.875 379 L 277.875 381.65 L 276.625 381.65 L 276.625 383.3 L 280.2 383.3 L 280.2 386.6 L 290.6 386.6 L 290.6 383.3 L 294.175 383.3 L 294.175 381.65 L 292.925 381.65 L 292.925 379 L 294.175 379 L 294.175 376.35 L 297.425 376.35 L 297.425 379 L 298.675 379 L 298.675 381.65 L 297.425 381.65 L 297.425 383.3 L 301 383.3 L 301 386.6 L 302.9 386.6 L 302.9 338.275 L 306.2 338.275 L 306.2 291.575 L 302.95 291.575 L 302.95 289.95 L 302.95 288.325 L 306.2 288.325 L 306.2 241.625 L 302.9 241.625 L 302.9 144.975 L 306.2 144.975 L 306.2 98.275 L 302.95 98.275 L 302.95 96.65 L 302.95 95.025 L 306.2 95.025 L 306.2 48.325 L 302.9 48.325 L 302.9 0 L 301 0 L 301 3.3 L 297.425 3.3 L 297.425 4.95 L 298.675 4.95 L 298.675 7.6 L 297.425 7.6 L 297.425 10.25 L 294.175 10.25 L 294.175 7.6 L 292.925 7.6 L 292.925 4.95 L 294.175 4.95 L 294.175 3.3 L 290.6 3.3 L 290.6 0 L 280.2 0 L 280.2 3.3 L 276.625 3.3 L 276.625 4.95 L 277.875 4.95 L 277.875 7.6 L 276.625 7.6 L 276.625 10.25 L 273.375 10.25 L 273.375 7.6 L 272.125 7.6 L 272.125 4.95 L 273.375 4.95 L 273.375 3.3 L 269.8 3.3 L 269.8 0 L 267.9 0 Z" id="right_outsideCutPath" stroke="#FF0000" stroke-width="0.1" style="stroke:#FF0000;stroke-width:0.1" vector-effect="non-scaling-stroke"/><path d="M 290.574 195.461 L 289.899 195.461 L 289.899 192.581 A 1.906 1.906 0 0 0 289.877 192.282 Q 289.852 192.125 289.799 191.999 A 0.802 0.802 0 0 0 289.651 191.768 A 0.76 0.76 0 0 0 289.34 191.569 Q 289.217 191.526 289.066 191.51 A 1.788 1.788 0 0 0 288.875 191.5 A 2.041 2.041 0 0 0 288.494 191.534 Q 288.282 191.574 288.12 191.663 A 0.944 0.944 0 0 0 287.85 191.882 A 1.122 1.122 0 0 0 287.659 192.22 Q 287.544 192.529 287.529 192.988 A 4.353 4.353 0 0 0 287.527 193.133 L 287.527 195.461 L 286.852 195.461 L 286.852 189.14 L 287.527 189.14 L 287.527 191.053 Q 287.527 191.399 287.494 191.626 L 287.535 191.626 A 1.347 1.347 0 0 1 288.007 191.172 A 1.646 1.646 0 0 1 288.102 191.12 A 1.731 1.731 0 0 1 288.67 190.952 A 2.189 2.189 0 0 1 288.94 190.936 A 2.736 2.736 0 0 1 289.4 190.972 Q 289.645 191.013 289.838 191.103 A 1.216 1.216 0 0 1 290.165 191.324 Q 290.482 191.625 290.553 192.202 A 2.916 2.916 0 0 1 290.574 192.557 L 290.574 195.461 Z M 284.399 191.009 L 285.938 191.009 L 285.938 191.435 L 285.114 191.533 A 1.096 1.096 0 0 1 285.208 191.674 Q 285.25 191.747 285.288 191.834 A 2.079 2.079 0 0 1 285.317 191.905 A 1.297 1.297 0 0 1 285.394 192.214 A 1.666 1.666 0 0 1 285.406 192.422 A 1.546 1.546 0 0 1 285.335 192.902 A 1.25 1.25 0 0 1 284.959 193.467 A 1.496 1.496 0 0 1 284.371 193.776 Q 284.148 193.839 283.884 193.853 A 2.929 2.929 0 0 1 283.732 193.857 A 2.167 2.167 0 0 1 283.482 193.843 A 1.83 1.83 0 0 1 283.359 193.824 A 1.2 1.2 0 0 0 283.165 193.949 Q 283.065 194.03 283.007 194.122 A 0.507 0.507 0 0 0 282.928 194.397 A 0.35 0.35 0 0 0 282.946 194.511 Q 282.978 194.605 283.069 194.662 A 0.374 0.374 0 0 0 283.078 194.667 Q 283.229 194.754 283.594 194.754 L 284.382 194.754 A 2.76 2.76 0 0 1 284.802 194.784 Q 285.021 194.818 285.198 194.89 A 1.219 1.219 0 0 1 285.493 195.059 A 0.987 0.987 0 0 1 285.86 195.688 A 1.482 1.482 0 0 1 285.881 195.945 Q 285.881 196.67 285.311 197.057 A 1.603 1.603 0 0 1 285.288 197.072 A 2.022 2.022 0 0 1 284.767 197.308 Q 284.51 197.387 284.196 197.424 A 5.345 5.345 0 0 1 283.558 197.46 A 3.778 3.778 0 0 1 283.051 197.428 Q 282.794 197.393 282.584 197.32 A 1.567 1.567 0 0 1 282.211 197.135 A 1.075 1.075 0 0 1 281.864 196.759 Q 281.738 196.524 281.738 196.217 A 1.031 1.031 0 0 1 281.998 195.514 A 1.178 1.178 0 0 1 282.402 195.219 A 1.669 1.669 0 0 1 282.729 195.112 A 0.7 0.7 0 0 1 282.457 194.892 A 0.831 0.831 0 0 1 282.443 194.872 A 0.625 0.625 0 0 1 282.328 194.534 A 0.774 0.774 0 0 1 282.327 194.494 A 0.771 0.771 0 0 1 282.366 194.246 A 0.683 0.683 0 0 1 282.457 194.068 A 0.965 0.965 0 0 1 282.584 193.924 Q 282.698 193.817 282.867 193.714 Q 282.522 193.572 282.304 193.231 A 1.394 1.394 0 0 1 282.09 192.559 A 1.701 1.701 0 0 1 282.087 192.451 Q 282.087 191.72 282.526 191.324 Q 282.965 190.927 283.769 190.927 A 2.585 2.585 0 0 1 284.111 190.949 A 1.969 1.969 0 0 1 284.399 191.009 Z M 294.006 194.905 L 294.006 195.421 A 0.663 0.663 0 0 1 293.928 195.452 Q 293.83 195.484 293.683 195.508 Q 293.484 195.54 293.322 195.542 A 1.727 1.727 0 0 1 293.3 195.542 A 1.761 1.761 0 0 1 292.78 195.473 Q 292.21 195.297 292.061 194.677 A 2.12 2.12 0 0 1 292.008 194.182 L 292.008 191.533 L 291.37 191.533 L 291.37 191.208 L 292.008 190.927 L 292.292 189.977 L 292.682 189.977 L 292.682 191.009 L 293.974 191.009 L 293.974 191.533 L 292.682 191.533 L 292.682 194.153 A 1.358 1.358 0 0 0 292.702 194.392 Q 292.725 194.522 292.776 194.626 A 0.654 0.654 0 0 0 292.873 194.771 A 0.626 0.626 0 0 0 293.258 194.976 A 0.901 0.901 0 0 0 293.397 194.986 Q 293.576 194.986 293.742 194.96 A 3.648 3.648 0 0 0 293.84 194.943 Q 293.933 194.925 293.997 194.907 A 1.018 1.018 0 0 0 294.006 194.905 Z M 279.357 190.976 L 279.264 191.602 Q 279.033 191.551 278.848 191.543 A 1.582 1.582 0 0 0 278.776 191.541 A 1.168 1.168 0 0 0 277.913 191.914 A 1.599 1.599 0 0 0 277.852 191.98 A 1.54 1.54 0 0 0 277.48 192.844 A 2.047 2.047 0 0 0 277.468 193.072 L 277.468 195.461 L 276.794 195.461 L 276.794 191.009 L 277.35 191.009 L 277.427 191.833 L 277.46 191.833 Q 277.708 191.399 278.057 191.163 Q 278.406 190.927 278.825 190.927 A 3.096 3.096 0 0 1 279.102 190.939 A 2.26 2.26 0 0 1 279.357 190.976 Z M 280.864 191.009 L 280.864 195.461 L 280.19 195.461 L 280.19 191.009 L 280.864 191.009 Z M 284.167 195.36 L 283.359 195.36 Q 282.9 195.36 282.644 195.579 A 0.711 0.711 0 0 0 282.41 195.982 A 1.079 1.079 0 0 0 282.388 196.209 Q 282.388 196.57 282.692 196.757 A 1.08 1.08 0 0 0 282.958 196.871 Q 283.208 196.943 283.56 196.944 A 3.493 3.493 0 0 0 283.566 196.944 A 4.533 4.533 0 0 0 284.009 196.924 Q 284.452 196.88 284.731 196.741 A 1.12 1.12 0 0 0 284.823 196.69 A 0.984 0.984 0 0 0 285.051 196.499 A 0.737 0.737 0 0 0 285.231 196.002 A 0.912 0.912 0 0 0 285.215 195.82 Q 285.194 195.716 285.146 195.638 A 0.425 0.425 0 0 0 285.008 195.5 A 0.64 0.64 0 0 0 284.856 195.434 Q 284.695 195.384 284.439 195.368 A 4.291 4.291 0 0 0 284.167 195.36 Z M 282.753 192.435 Q 282.753 192.902 283.017 193.142 Q 283.255 193.357 283.661 193.379 A 1.736 1.736 0 0 0 283.753 193.381 A 1.469 1.469 0 0 0 284.137 193.335 Q 284.74 193.171 284.74 192.422 A 1.45 1.45 0 0 0 284.69 192.025 Q 284.563 191.58 284.111 191.462 A 1.467 1.467 0 0 0 283.74 191.419 Q 283.376 191.419 283.141 191.569 A 0.776 0.776 0 0 0 283.009 191.675 A 0.809 0.809 0 0 0 282.813 192.005 Q 282.753 192.191 282.753 192.435 Z M 280.133 189.802 Q 280.133 189.571 280.247 189.463 Q 280.36 189.355 280.531 189.355 A 0.397 0.397 0 0 1 280.811 189.465 Q 280.909 189.556 280.926 189.729 A 0.771 0.771 0 0 1 280.929 189.802 Q 280.929 190.03 280.811 190.141 A 0.393 0.393 0 0 1 280.531 190.253 A 0.428 0.428 0 0 1 280.384 190.229 A 0.378 0.378 0 0 1 280.247 190.141 A 0.348 0.348 0 0 1 280.162 190.002 Q 280.133 189.917 280.133 189.802 Z" id="right_labelLayer" stroke="#777777" fill="#777777" style="stroke:#777777;fill:#777777" vector-effect="non-scaling-stroke"/><path d="M 312.5 693.3 L 312.5 695.2 L 309.2 695.2 L 309.2 698.775 L 312.45 698.775 L 312.45 700.4 L 312.45 702.025 L 309.2 702.025 L 309.2 705.6 L 312.5 705.6 L 312.5 716 L 309.2 716 L 309.2 719.575 L 312.45 719.575 L 312.45 721.2 L 312.45 722.825 L 309.2 722.825 L 309.2 726.4 L 312.5 726.4 L 312.5 728.3 L 341.9 728.3 L 341.9 731.6 L 372.975 731.6 L 372.975 728.35 L 374.6 728.35 L 376.225 728.35 L 376.225 731.6 L 407.3 731.6 L 407.3 728.3 L 472.7 728.3 L 472.7 731.6 L 503.775 731.6 L 503.775 728.35 L 505.4 728.35 L 507.025 728.35 L 507.025 731.6 L 538.1 731.6 L 538.1 728.3 L 567.5 728.3 L 567.5 726.4 L 570.8 726.4 L 570.8 722.825 L 567.55 722.825 L 567.55 721.2 L 567.55 719.575 L 570.8 719.575 L 570.8 716 L 567.5 716 L 567.5 705.6 L 570.8 705.6 L 570.8 702.025 L 567.55 702.025 L 567.55 700.4 L 567.55 698.775 L 570.8 698.775 L 570.8 695.2 L 567.5 695.2 L 567.5 693.3 L 538.1 693.3 L 538.1 690 L 507.025 690 L 507.025 693.25 L 505.4 693.25 L 503.775 693.25 L 503.775 690 L 472.7 690 L 472.7 693.3 L 407.3 693.3 L 407.3 690 L 376.225 690 L 376.225 693.25 L 374.6 693.25 L 372.975 693.25 L 372.975 690 L 341.9 690 L 341.9 693.3 L 312.5 693.3 Z" id="bottom_outsideCutPath" stroke="#FF0000" stroke-width="0.1" style="stroke:#FF0000;stroke-width:0.1" vector-effect="non-scaling-stroke"/><path d="M 453.687 713.92 L 453.012 713.92 L 453.012 711.023 A 1.989 1.989 0 0 0 452.992 710.731 Q 452.97 710.581 452.923 710.461 A 0.815 0.815 0 0 0 452.785 710.225 A 0.71 0.71 0 0 0 452.455 710.012 Q 452.337 709.974 452.194 709.963 A 1.565 1.565 0 0 0 452.078 709.959 Q 451.448 709.959 451.147 710.321 Q 450.847 710.682 450.847 711.434 L 450.847 713.92 L 450.172 713.92 L 450.172 711.023 A 1.989 1.989 0 0 0 450.152 710.731 Q 450.13 710.581 450.083 710.461 A 0.815 0.815 0 0 0 449.945 710.225 Q 449.748 709.995 449.359 709.964 A 1.579 1.579 0 0 0 449.234 709.959 A 1.675 1.675 0 0 0 448.888 709.992 Q 448.674 710.038 448.515 710.144 A 0.884 0.884 0 0 0 448.306 710.339 Q 448.011 710.719 448.011 711.584 L 448.011 713.92 L 447.337 713.92 L 447.337 709.467 L 447.885 709.467 L 447.995 710.077 L 448.027 710.077 A 1.325 1.325 0 0 1 448.566 709.569 A 1.601 1.601 0 0 1 449.198 709.392 A 1.934 1.934 0 0 1 449.344 709.386 Q 449.99 709.386 450.36 709.676 A 1.151 1.151 0 0 1 450.709 710.142 L 450.741 710.142 Q 450.94 709.792 451.318 709.589 A 1.707 1.707 0 0 1 451.944 709.399 A 2.128 2.128 0 0 1 452.179 709.386 Q 452.689 709.386 453.025 709.562 A 1.111 1.111 0 0 1 453.311 709.774 A 1.161 1.161 0 0 1 453.56 710.182 Q 453.627 710.362 453.659 710.586 A 3.093 3.093 0 0 1 453.687 711.015 L 453.687 713.92 Z M 426.988 713.347 L 426.939 713.347 L 426.797 713.92 L 426.313 713.92 L 426.313 707.599 L 426.988 707.599 L 426.988 709.134 A 14.06 14.06 0 0 1 426.98 709.609 Q 426.972 709.849 426.955 710.061 L 426.988 710.061 A 1.533 1.533 0 0 1 428.107 709.411 A 2.303 2.303 0 0 1 428.385 709.394 A 2.061 2.061 0 0 1 428.965 709.472 A 1.543 1.543 0 0 1 429.748 709.993 A 1.987 1.987 0 0 1 430.097 710.665 Q 430.182 710.941 430.214 711.272 A 4.329 4.329 0 0 1 430.234 711.69 Q 430.234 712.464 429.99 712.994 A 1.895 1.895 0 0 1 429.744 713.394 A 1.596 1.596 0 0 1 428.61 713.99 A 2.287 2.287 0 0 1 428.385 714.001 A 2.046 2.046 0 0 1 427.871 713.938 A 1.78 1.78 0 0 1 427.591 713.841 A 1.494 1.494 0 0 1 426.988 713.347 Z M 438.485 713.363 L 438.485 713.879 A 0.663 0.663 0 0 1 438.406 713.91 Q 438.308 713.943 438.162 713.967 Q 437.963 713.999 437.801 714.001 A 1.727 1.727 0 0 1 437.778 714.001 A 1.761 1.761 0 0 1 437.259 713.931 Q 436.688 713.755 436.539 713.135 A 2.12 2.12 0 0 1 436.486 712.64 L 436.486 709.991 L 435.848 709.991 L 435.848 709.666 L 436.486 709.386 L 436.77 708.436 L 437.16 708.436 L 437.16 709.467 L 438.452 709.467 L 438.452 709.991 L 437.16 709.991 L 437.16 712.612 A 1.358 1.358 0 0 0 437.18 712.85 Q 437.203 712.981 437.255 713.085 A 0.654 0.654 0 0 0 437.351 713.229 A 0.626 0.626 0 0 0 437.736 713.434 A 0.901 0.901 0 0 0 437.875 713.445 Q 438.054 713.445 438.221 713.418 A 3.648 3.648 0 0 0 438.318 713.401 Q 438.411 713.384 438.476 713.366 A 1.018 1.018 0 0 0 438.485 713.363 Z M 441.422 713.363 L 441.422 713.879 A 0.663 0.663 0 0 1 441.343 713.91 Q 441.246 713.943 441.099 713.967 Q 440.9 713.999 440.738 714.001 A 1.727 1.727 0 0 1 440.715 714.001 A 1.761 1.761 0 0 1 440.196 713.931 Q 439.625 713.755 439.476 713.135 A 2.12 2.12 0 0 1 439.423 712.64 L 439.423 709.991 L 438.785 709.991 L 438.785 709.666 L 439.423 709.386 L 439.707 708.436 L 440.097 708.436 L 440.097 709.467 L 441.389 709.467 L 441.389 709.991 L 440.097 709.991 L 440.097 712.612 A 1.358 1.358 0 0 0 440.117 712.85 Q 440.14 712.981 440.192 713.085 A 0.654 0.654 0 0 0 440.288 713.229 A 0.626 0.626 0 0 0 440.674 713.434 A 0.901 0.901 0 0 0 440.812 713.445 Q 440.991 713.445 441.158 713.418 A 3.648 3.648 0 0 0 441.255 713.401 Q 441.348 713.384 441.413 713.366 A 1.018 1.018 0 0 0 441.422 713.363 Z M 434.707 713.39 A 1.881 1.881 0 0 0 434.931 713.082 Q 435.255 712.527 435.255 711.69 A 3.958 3.958 0 0 0 435.254 711.583 Q 435.244 711.212 435.163 710.897 A 2.1 2.1 0 0 0 434.705 710.008 A 1.765 1.765 0 0 0 433.885 709.479 A 2.266 2.266 0 0 0 433.22 709.386 A 2.619 2.619 0 0 0 432.749 709.427 A 1.784 1.784 0 0 0 431.708 709.993 Q 431.347 710.397 431.225 711.012 A 3.502 3.502 0 0 0 431.164 711.69 A 3.374 3.374 0 0 0 431.206 712.236 A 2.495 2.495 0 0 0 431.416 712.916 A 2.217 2.217 0 0 0 431.465 713.013 A 1.826 1.826 0 0 0 432.131 713.721 A 1.878 1.878 0 0 0 432.562 713.912 A 2.166 2.166 0 0 0 433.191 714.001 A 2.619 2.619 0 0 0 433.649 713.963 A 1.798 1.798 0 0 0 434.707 713.39 Z M 445.606 713.39 A 1.881 1.881 0 0 0 445.83 713.082 Q 446.155 712.527 446.155 711.69 A 3.958 3.958 0 0 0 446.153 711.583 Q 446.143 711.212 446.063 710.897 A 2.1 2.1 0 0 0 445.604 710.008 A 1.765 1.765 0 0 0 444.785 709.479 A 2.266 2.266 0 0 0 444.119 709.386 A 2.619 2.619 0 0 0 443.649 709.427 A 1.784 1.784 0 0 0 442.608 709.993 Q 442.247 710.397 442.125 711.012 A 3.502 3.502 0 0 0 442.064 711.69 A 3.374 3.374 0 0 0 442.106 712.236 A 2.495 2.495 0 0 0 442.316 712.916 A 2.217 2.217 0 0 0 442.365 713.013 A 1.826 1.826 0 0 0 443.031 713.721 A 1.878 1.878 0 0 0 443.462 713.912 A 2.166 2.166 0 0 0 444.091 714.001 A 2.619 2.619 0 0 0 444.548 713.963 A 1.798 1.798 0 0 0 445.606 713.39 Z M 431.863 711.69 A 3.415 3.415 0 0 0 431.895 712.177 Q 431.968 712.681 432.204 712.99 A 1.105 1.105 0 0 0 432.924 713.414 A 1.675 1.675 0 0 0 433.207 713.436 A 1.566 1.566 0 0 0 433.621 713.385 A 1.09 1.09 0 0 0 434.213 712.992 Q 434.556 712.547 434.556 711.69 A 3.365 3.365 0 0 0 434.524 711.21 Q 434.489 710.966 434.415 710.768 A 1.389 1.389 0 0 0 434.213 710.4 A 1.109 1.109 0 0 0 433.523 709.988 A 1.701 1.701 0 0 0 433.199 709.959 Q 432.537 709.959 432.2 710.394 A 1.394 1.394 0 0 0 431.983 710.812 Q 431.919 711.005 431.889 711.241 A 3.564 3.564 0 0 0 431.863 711.69 Z M 442.762 711.69 A 3.415 3.415 0 0 0 442.795 712.177 Q 442.868 712.681 443.104 712.99 A 1.105 1.105 0 0 0 443.824 713.414 A 1.675 1.675 0 0 0 444.107 713.436 A 1.566 1.566 0 0 0 444.52 713.385 A 1.09 1.09 0 0 0 445.113 712.992 Q 445.456 712.547 445.456 711.69 A 3.365 3.365 0 0 0 445.424 711.21 Q 445.389 710.966 445.315 710.768 A 1.389 1.389 0 0 0 445.113 710.4 A 1.109 1.109 0 0 0 444.423 709.988 A 1.701 1.701 0 0 0 444.099 709.959 Q 443.437 709.959 443.1 710.394 A 1.394 1.394 0 0 0 442.883 710.812 Q 442.819 711.005 442.789 711.241 A 3.564 3.564 0 0 0 442.762 711.69 Z M 428.288 709.959 A 1.895 1.895 0 0 0 427.921 709.992 Q 427.712 710.033 427.553 710.126 A 0.897 0.897 0 0 0 427.292 710.355 Q 427.025 710.703 426.992 711.47 A 5.196 5.196 0 0 0 426.988 711.69 Q 426.988 712.628 427.301 713.032 A 0.978 0.978 0 0 0 427.797 713.367 Q 428.018 713.436 428.304 713.436 A 1.344 1.344 0 0 0 428.686 713.385 A 0.97 0.97 0 0 0 429.23 712.983 Q 429.448 712.66 429.51 712.134 A 3.864 3.864 0 0 0 429.535 711.681 A 3.984 3.984 0 0 0 429.511 711.227 Q 429.449 710.692 429.23 710.386 A 0.983 0.983 0 0 0 428.604 709.989 A 1.56 1.56 0 0 0 428.288 709.959 Z" id="bottom_labelLayer" stroke="#777777" fill="#777777" style="stroke:#777777;fill:#777777" vector-effect="non-scaling-stroke"/></g></svg>