<?xml version="1.0" encoding="UTF-8" standalone="no"?>
<svg
   xmlns:dc="http://purl.org/dc/elements/1.1/"
   xmlns:cc="http://creativecommons.org/ns#"
   xmlns:rdf="http://www.w3.org/1999/02/22-rdf-syntax-ns#"
   xmlns:svg="http://www.w3.org/2000/svg"
   xmlns="http://www.w3.org/2000/svg"
   xmlns:sodipodi="http://sodipodi.sourceforge.net/DTD/sodipodi-0.dtd"
   xmlns:inkscape="http://www.inkscape.org/namespaces/inkscape"
   width="210mm"
   height="297mm"
   viewBox="0 0 210 297"
   version="1.1"
   id="svg8"
   inkscape:version="1.0.2 (e86c8708, 2021-01-15)"
   sodipodi:docname="bottom_1x1_execute.svg">
  <defs
     id="defs2" />
  <sodipodi:namedview
     id="base"
     pagecolor="#ffffff"
     bordercolor="#666666"
     borderopacity="1.0"
     inkscape:pageopacity="0.0"
     inkscape:pageshadow="2"
     inkscape:zoom="2.7363858"
     inkscape:cx="212.49825"
     inkscape:cy="903.79542"
     inkscape:document-units="mm"
     inkscape:current-layer="layer1"
     inkscape:document-rotation="0"
     showgrid="false"
     inkscape:window-width="1252"
     inkscape:window-height="786"
     inkscape:window-x="0"
     inkscape:window-y="25"
     inkscape:window-maximized="0" />
  <metadata
     id="metadata5">
    <rdf:RDF>
      <cc:Work
         rdf:about="">
        <dc:format>image/svg+xml</dc:format>
        <dc:type
           rdf:resource="http://purl.org/dc/dcmitype/StillImage" />
        <dc:title />
      </cc:Work>
    </rdf:RDF>
  </metadata>
  <g
     inkscape:label="Layer 1"
     inkscape:groupmode="layer"
     id="layer1">
    <path
       id="rect5431"
       style="fill:#0000aa;fill-opacity:0.524193;stroke-width:1;stroke-linecap:round;stroke-linejoin:round"
       d="m 4.999913,247.61695 3.00033,2.99982 H 113.50006 l 2.99993,-3 v -5.00003 h 64.00011 v 5.00003 l 2.99984,3 h 18.50033 l 2.99982,-2.99982 V 142.11667 l -3,-2.99988 h -5.00002 V 75.116541 l 5.00002,1.2e-4 3,-3 v -18.49977 l -2.99982,-3.00033 H 96.500003 l -3.00009,3.0002 v 4.99984 h -63.99972 v -4.99984 l -3.00019,-3 -18.49976,-2e-4 -3.00033,3.00033 V 159.1166 l 3.00018,3 4.99985,1.4e-4 v 63.99986 h -4.99985 l -3.00018,3.00015 z m 4.00027,-112.0004 V 77.616981 h 3.99976 v 57.999579 z m 23.00015,111.00046 v -4.00027 h 57.99956 v 4.00027 z M 120.00013,58.616601 v -3.99977 h 58.00008 v 3.99977 z m 76.99994,165.000269 v -58.00008 h 4.00027 v 58.00008 z"
       sodipodi:nodetypes="ccccccccccccccccccccccccccccccccccccccccccccccccccccc" />
  </g>
</svg>
