<?xml version="1.0" encoding="UTF-8" standalone="no"?>
<svg
   xmlns:dc="http://purl.org/dc/elements/1.1/"
   xmlns:cc="http://creativecommons.org/ns#"
   xmlns:rdf="http://www.w3.org/1999/02/22-rdf-syntax-ns#"
   xmlns:svg="http://www.w3.org/2000/svg"
   xmlns="http://www.w3.org/2000/svg"
   xmlns:sodipodi="http://sodipodi.sourceforge.net/DTD/sodipodi-0.dtd"
   xmlns:inkscape="http://www.inkscape.org/namespaces/inkscape"
   height="300mm"
   viewBox="0 0 599.99998 300"
   width="600mm"
   version="1.1"
   id="svg879"
   sodipodi:docname="DrinkRackXHain.svg"
   inkscape:version="1.0.2 (e86c8708, 2021-01-15)">
  <defs
     id="defs883" />
  <sodipodi:namedview
     pagecolor="#ffffff"
     bordercolor="#666666"
     borderopacity="1"
     objecttolerance="10"
     gridtolerance="10"
     guidetolerance="10"
     inkscape:pageopacity="0"
     inkscape:pageshadow="2"
     inkscape:window-width="1440"
     inkscape:window-height="791"
     id="namedview881"
     showgrid="false"
     inkscape:document-units="mm"
     inkscape:zoom="0.40654111"
     inkscape:cx="1101.1809"
     inkscape:cy="475.52674"
     inkscape:window-x="0"
     inkscape:window-y="25"
     inkscape:window-maximized="1"
     inkscape:current-layer="svg879" />
  <!--
WineRack - Honey Comb Style Wine Rack

Created with Boxes.py (https://festi.info/boxes.py)
Creation date: 2021-11-13 11:22:23
Command line (remove spaces between dashes): boxes WineRack - -FingerJoint_angle=90.0 - -FingerJoint_style=rectangular - -FingerJoint_surroundingspaces=2.0 - -FingerJoint_edge_width=1.0 - -FingerJoint_finger=2.0 - -FingerJoint_play=0.0 - -FingerJoint_space=2.0 - -FingerJoint_width=1.0 - -x=315 - -y=125 - -h=100 - -radius=47.0 - -walls=all - -thickness=4 - -format=svg - -tabs=0.0 - -debug=0 - -labels=0 - -labels=1 - -reference=100 - -burn=0.1
Url: http://www.festi.info/WineRack?FingerJoint_angle=90.0&FingerJoint_style=rectangular&FingerJoint_surroundingspaces=2.0&FingerJoint_edge_width=1.0&FingerJoint_finger=2.0&FingerJoint_play=0.0&FingerJoint_space=2.0&FingerJoint_width=1.0&x=315&y=125&h=100&radius=47.0&walls=all&thickness=4&format=svg&tabs=0.0&debug=0&labels=0&labels=1&reference=100&burn=0.1&render=1
SettingsUrl: http://www.festi.info/WineRack?FingerJoint_angle=90.0&FingerJoint_style=rectangular&FingerJoint_surroundingspaces=2.0&FingerJoint_edge_width=1.0&FingerJoint_finger=2.0&FingerJoint_play=0.0&FingerJoint_space=2.0&FingerJoint_width=1.0&x=315&y=125&h=100&radius=47.0&walls=all&thickness=4&format=svg&tabs=0.0&debug=0&labels=0&labels=1&reference=100&burn=0.1
-->
  <title
     id="title569">WineRack</title>
  <metadata
     id="metadata571">
    <rdf:RDF>
      <cc:Work>
        <dc:title>Shelf - WineRack</dc:title>
        <dc:date>2021-11-13 11:22:23</dc:date>
        <dc:source>http://www.festi.info/WineRack?FingerJoint_angle=90.0&amp;FingerJoint_style=rectangular&amp;FingerJoint_surroundingspaces=2.0&amp;FingerJoint_edge_width=1.0&amp;FingerJoint_finger=2.0&amp;FingerJoint_play=0.0&amp;FingerJoint_space=2.0&amp;FingerJoint_width=1.0&amp;x=315&amp;y=125&amp;h=100&amp;radius=47.0&amp;walls=all&amp;thickness=4&amp;format=svg&amp;tabs=0.0&amp;debug=0&amp;labels=0&amp;labels=1&amp;reference=100&amp;burn=0.1&amp;render=1</dc:source>
        <dc:description>Honey Comb Style Wine Rack

Created with Boxes.py (https://festi.info/boxes.py)
Command line: boxes WineRack --FingerJoint_angle=90.0 --FingerJoint_style=rectangular --FingerJoint_surroundingspaces=2.0 --FingerJoint_edge_width=1.0 --FingerJoint_finger=2.0 --FingerJoint_play=0.0 --FingerJoint_space=2.0 --FingerJoint_width=1.0 --x=315 --y=125 --h=100 --radius=47.0 --walls=all --thickness=4 --format=svg --tabs=0.0 --debug=0 --labels=0 --labels=1 --reference=100 --burn=0.1
Url: http://www.festi.info/WineRack?FingerJoint_angle=90.0&amp;FingerJoint_style=rectangular&amp;FingerJoint_surroundingspaces=2.0&amp;FingerJoint_edge_width=1.0&amp;FingerJoint_finger=2.0&amp;FingerJoint_play=0.0&amp;FingerJoint_space=2.0&amp;FingerJoint_width=1.0&amp;x=315&amp;y=125&amp;h=100&amp;radius=47.0&amp;walls=all&amp;thickness=4&amp;format=svg&amp;tabs=0.0&amp;debug=0&amp;labels=0&amp;labels=1&amp;reference=100&amp;burn=0.1&amp;render=1
SettingsUrl: http://www.festi.info/WineRack?FingerJoint_angle=90.0&amp;FingerJoint_style=rectangular&amp;FingerJoint_surroundingspaces=2.0&amp;FingerJoint_edge_width=1.0&amp;FingerJoint_finger=2.0&amp;FingerJoint_play=0.0&amp;FingerJoint_space=2.0&amp;FingerJoint_width=1.0&amp;x=315&amp;y=125&amp;h=100&amp;radius=47.0&amp;walls=all&amp;thickness=4&amp;format=svg&amp;tabs=0.0&amp;debug=0&amp;labels=0&amp;labels=1&amp;reference=100&amp;burn=0.1
</dc:description>
        <dc:format>image/svg+xml</dc:format>
        <dc:type
           rdf:resource="http://purl.org/dc/dcmitype/StillImage" />
      </cc:Work>
    </rdf:RDF>
  </metadata>
  <text
     alignment-baseline="hanging"
     font-size="4px"
     style="font-style:normal;font-weight:normal;font-family:sans-serif;fill:#ff0000;stroke-linecap:round;stroke-linejoin:round"
     text-anchor="middle"
     id="text682"
     x="167.60001"
     y="213.3" />
  <text
     alignment-baseline="hanging"
     font-size="4px"
     style="font-style:normal;font-weight:normal;font-family:sans-serif;fill:#ff0000;stroke-linecap:round;stroke-linejoin:round"
     text-anchor="middle"
     id="text783"
     x="167.60001"
     y="86.099998" />
  <text
     alignment-baseline="hanging"
     font-size="4px"
     style="font-style:normal;font-weight:normal;font-family:sans-serif;fill:#ff0000;stroke-linecap:round;stroke-linejoin:round"
     text-anchor="middle"
     id="text794"
     x="167.60001"
     y="-41.099998" />
  <text
     alignment-baseline="hanging"
     font-size="4px"
     style="font-style:normal;font-weight:normal;font-family:sans-serif;fill:#ff0000;stroke:#ff0000;stroke-linecap:round;stroke-linejoin:round"
     text-anchor="middle"
     transform="rotate(-90)"
     id="text799"
     x="-147.51765"
     y="310.06998" />
  <text
     alignment-baseline="hanging"
     font-size="4px"
     style="font-style:normal;font-weight:normal;font-family:sans-serif;fill:#ff0000;stroke:#ff0000;stroke-linecap:round;stroke-linejoin:round"
     text-anchor="middle"
     transform="rotate(-90)"
     id="text804"
     x="-33.95615"
     y="418.26999" />
  <text
     alignment-baseline="hanging"
     font-size="4px"
     style="font-style:normal;font-weight:normal;font-family:sans-serif;fill:#ff0000;stroke:#ff0000;stroke-linecap:round;stroke-linejoin:round"
     text-anchor="middle"
     transform="rotate(-90)"
     id="text809"
     x="-33.95565"
     y="526.46997" />
  <text
     alignment-baseline="hanging"
     font-size="4px"
     style="font-style:normal;font-weight:normal;font-family:sans-serif;fill:#ff0000;stroke:#ff0000;stroke-linecap:round;stroke-linejoin:round"
     text-anchor="middle"
     transform="rotate(-90)"
     id="text814"
     x="-261.07965"
     y="310.06998" />
  <text
     alignment-baseline="hanging"
     font-size="4px"
     style="font-style:normal;font-weight:normal;font-family:sans-serif;fill:#ff0000;stroke:#ff0000;stroke-linecap:round;stroke-linejoin:round"
     text-anchor="middle"
     transform="rotate(-90)"
     id="text819"
     x="-147.51814"
     y="418.26999" />
  <text
     alignment-baseline="hanging"
     font-size="4px"
     style="font-style:normal;font-weight:normal;font-family:sans-serif;fill:#ff0000;stroke:#ff0000;stroke-linecap:round;stroke-linejoin:round"
     text-anchor="middle"
     transform="rotate(-90)"
     id="text824"
     x="-147.51765"
     y="526.46997" />
  <text
     alignment-baseline="hanging"
     font-size="4px"
     style="font-style:normal;font-weight:normal;font-family:sans-serif;fill:#ff0000;stroke:#ff0000;stroke-linecap:round;stroke-linejoin:round"
     text-anchor="middle"
     transform="rotate(-90)"
     id="text829"
     x="-90.736649"
     y="418.26999" />
  <text
     alignment-baseline="hanging"
     font-size="4px"
     style="font-style:normal;font-weight:normal;font-family:sans-serif;fill:#ff0000;stroke:#ff0000;stroke-linecap:round;stroke-linejoin:round"
     text-anchor="middle"
     transform="rotate(-90)"
     id="text834"
     x="-33.95615"
     y="310.06998" />
  <text
     alignment-baseline="hanging"
     font-size="4px"
     style="font-style:normal;font-weight:normal;font-family:sans-serif;fill:#ff0000;stroke:#ff0000;stroke-linecap:round;stroke-linejoin:round"
     text-anchor="middle"
     transform="rotate(-90)"
     id="text839"
     x="-261.07965"
     y="418.26999" />
  <text
     alignment-baseline="hanging"
     font-size="4px"
     style="font-style:normal;font-weight:normal;font-family:sans-serif;fill:#ff0000;stroke:#ff0000;stroke-linecap:round;stroke-linejoin:round"
     text-anchor="middle"
     transform="rotate(-90)"
     id="text844"
     x="-204.29865"
     y="418.26999" />
  <text
     alignment-baseline="hanging"
     font-size="4px"
     style="font-style:normal;font-weight:normal;font-family:sans-serif;fill:#ff0000;stroke:#ff0000;stroke-linecap:round;stroke-linejoin:round"
     text-anchor="middle"
     transform="rotate(-90)"
     id="text849"
     x="-90.737152"
     y="310.06998" />
  <text
     alignment-baseline="hanging"
     font-size="4px"
     style="font-style:normal;font-weight:normal;font-family:sans-serif;fill:#ff0000;stroke:#ff0000;stroke-linecap:round;stroke-linejoin:round"
     text-anchor="middle"
     transform="rotate(-90)"
     id="text854"
     x="-90.736649"
     y="526.46997" />
  <g
     id="g2816"
     transform="translate(-122.95366,-5.4651497)">
    <path
       d="m 367.36166,175.80765 v -8.19 c 0,-0.1 -0.1,0 0,0 h 3.9 c 0.055,0 0.1,-0.045 0.1,-0.1 m 0,-8 c 0,-0.055 -0.045,-0.1 -0.1,-0.1 h -3.9 c -0.1,0 0,0.1 0,0 v -7.8 c 0,-0.1 -0.1,0 0,0 h 3.9 c 0.055,0 0.1,-0.045 0.1,-0.1 m 0,-8 c 0,-0.055 -0.045,-0.1 -0.1,-0.1 h -3.9 c -0.1,0 0,0.1 0,0 v -7.8 c 0,-0.1 -0.1,0 0,0 h 3.9 c 0.055,0 0.1,-0.045 0.1,-0.1 m 0,-8 c 0,-0.055 -0.045,-0.1 -0.1,-0.1 h -3.9 c -0.1,0 0,0.1 0,0 v -8.19 c 0,-0.056 -0.045,-0.1 -0.1,-0.1 m -100,0 c -0.055,0 -0.1,0.044 -0.1,0.1 v 8.19 c 0,0.1 0.1,0 0,0 h -3.9 c -0.055,0 -0.1,0.045 -0.1,0.1 v 8 c 0,0.055 0.045,0.1 0.1,0.1 h 3.9 c 0.1,0 0,-0.1 0,0 v 7.8 c 0,0.1 0.1,0 0,0 h -3.9 c -0.055,0 -0.1,0.045 -0.1,0.1 v 8 c 0,0.055 0.045,0.1 0.1,0.1 h 3.9 c 0.1,0 0,-0.1 0,0 v 7.8 c 0,0.1 0.1,0 0,0 h -3.9 c -0.055,0 -0.1,0.045 -0.1,0.1 v 8 c 0,0.055 0.045,0.1 0.1,0.1 h 3.9 c 0.1,0 0,-0.1 0,0 v 8.19 c 0,0.055 0.045,0.1 0.1,0.1 h 100 c 0.055,0 0.1,-0.045 0.1,-0.1"
       stroke="#000000"
       stroke-width="0.2"
       id="path801"
       style="fill:none;stroke:#ff0000;stroke-linecap:round;stroke-linejoin:round"
       sodipodi:nodetypes="csssccssssssccssssssccssssccssssssssssssssssssssssssssccc" />
    <path
       d="m 475.56166,62.246152 v -8.19 c 0,-0.1 -0.1,0 0,0 h 3.9 c 0.055,0 0.1,-0.045 0.1,-0.1 v -8 c 0,-0.056 -0.045,-0.1 -0.1,-0.1 h -3.9 c -0.1,0 0,0.1 0,0 v -7.8 c 0,-0.1 -0.1,0 0,0 h 3.9 c 0.055,0 0.1,-0.045 0.1,-0.1 v -8 c 0,-0.056 -0.045,-0.1 -0.1,-0.1 h -3.9 c -0.1,0 0,0.1 0,0 v -7.8 c 0,-0.1 -0.1,0 0,0 h 3.9 c 0.055,0 0.1,-0.045 0.1,-0.1 v -8 c 0,-0.056 -0.045,-0.1 -0.1,-0.1 h -3.9 c -0.1,0 0,0.1 0,0 v -8.191 c 0,-0.055 -0.045,-0.1 -0.1,-0.1 h -100 c -0.055,0 -0.1,0.045 -0.1,0.1 v 8.191 c 0,0.1 0.1,0 0,0 h -3.9 c -0.055,0 -0.1,0.044 -0.1,0.1 v 8 c 0,0.055 0.045,0.1 0.1,0.1 h 3.9 c 0.1,0 0,-0.1 0,0 v 7.8 c 0,0.1 0.1,0 0,0 h -3.9 c -0.055,0 -0.1,0.044 -0.1,0.1 v 8 c 0,0.055 0.045,0.1 0.1,0.1 h 3.9 c 0.1,0 0,-0.1 0,0 v 7.8 c 0,0.1 0.1,0 0,0 h -3.9 c -0.055,0 -0.1,0.044 -0.1,0.1 v 8 c 0,0.055 0.045,0.1 0.1,0.1 h 3.9 c 0.1,0 0,-0.1 0,0 v 8.19 c 0,0.055 0.045,0.1 0.1,0.1 h 100 c 0.055,0 0.1,-0.045 0.1,-0.1"
       stroke="#000000"
       stroke-width="0.2"
       id="path806"
       style="fill:none;stroke:#ff0000;stroke-linecap:round;stroke-linejoin:round" />
    <path
       d="m 583.76166,62.245652 v -8.19 c 0,-0.1 -0.1,0 0,0 h 3.9 c 0.055,0 0.1,-0.045 0.1,-0.1 v -8 c 0,-0.055 -0.045,-0.1 -0.1,-0.1 h -3.9 c -0.1,0 0,0.1 0,0 v -7.8 c 0,-0.1 -0.1,0 0,0 h 3.9 c 0.055,0 0.1,-0.045 0.1,-0.1 v -8 c 0,-0.055 -0.045,-0.1 -0.1,-0.1 h -3.9 c -0.1,0 0,0.1 0,0 v -7.8 c 0,-0.1 -0.1,0 0,0 h 3.9 c 0.055,0 0.1,-0.045 0.1,-0.1 v -8 c 0,-0.055 -0.045,-0.1 -0.1,-0.1 h -3.9 c -0.1,0 0,0.1 0,0 v -8.19 c 0,-0.055 -0.045,-0.1 -0.1,-0.1 h -100 c -0.055,0 -0.1,0.045 -0.1,0.1 v 8.19 c 0,0.1 0.1,0 0,0 h -3.9 c -0.055,0 -0.1,0.045 -0.1,0.1 m 0,8 c 0,0.055 0.045,0.1 0.1,0.1 h 3.9 c 0.1,0 0,-0.1 0,0 v 7.8 c 0,0.1 0.1,0 0,0 h -3.9 c -0.055,0 -0.1,0.045 -0.1,0.1 m 0,8 c 0,0.055 0.045,0.1 0.1,0.1 h 3.9 c 0.1,0 0,-0.1 0,0 v 7.8 c 0,0.1 0.1,0 0,0 h -3.9 c -0.055,0 -0.1,0.045 -0.1,0.1 m 0,8 c 0,0.055 0.045,0.1 0.1,0.1 h 3.9 c 0.1,0 0,-0.1 0,0 v 8.19 c 0,0.056 0.045,0.1 0.1,0.1 m 100,0 c 0.055,0 0.1,-0.044 0.1,-0.1"
       stroke="#000000"
       stroke-width="0.2"
       id="path811"
       style="fill:none;stroke:#ff0000;stroke-linecap:round;stroke-linejoin:round"
       sodipodi:nodetypes="csssssssssssssssssssssssssssssssccssssssccssssssccssssccc" />
    <path
       d="m 475.56166,175.80815 v -8.19 c 0,-0.1 -0.1,0 0,0 h 3.9 c 0.055,0 0.1,-0.045 0.1,-0.1 m 0,-8 c 0,-0.056 -0.045,-0.1 -0.1,-0.1 h -3.9 c -0.1,0 0,0.1 0,0 v -7.8 c 0,-0.1 -0.1,0 0,0 h 3.9 c 0.055,0 0.1,-0.045 0.1,-0.1 m 0,-8 c 0,-0.056 -0.045,-0.1 -0.1,-0.1 h -3.9 c -0.1,0 0,0.1 0,0 v -7.8 c 0,-0.1 -0.1,0 0,0 h 3.9 c 0.055,0 0.1,-0.045 0.1,-0.1 m 0,-8 c 0,-0.056 -0.045,-0.1 -0.1,-0.1 h -3.9 c -0.1,0 0,0.1 0,0 v -8.191 c 0,-0.055 -0.045,-0.1 -0.1,-0.1 h -100 c -0.055,0 -0.1,0.045 -0.1,0.1 v 8.191 c 0,0.1 0.1,0 0,0 h -3.9 c -0.055,0 -0.1,0.044 -0.1,0.1 v 8 c 0,0.055 0.045,0.1 0.1,0.1 h 3.9 c 0.1,0 0,-0.1 0,0 v 7.8 c 0,0.1 0.1,0 0,0 h -3.9 c -0.055,0 -0.1,0.044 -0.1,0.1 v 8 c 0,0.055 0.045,0.1 0.1,0.1 h 3.9 c 0.1,0 0,-0.1 0,0 v 7.8 c 0,0.1 0.1,0 0,0 h -3.9 c -0.055,0 -0.1,0.044 -0.1,0.1 v 8 c 0,0.055 0.045,0.1 0.1,0.1 h 3.9 c 0.1,0 0,-0.1 0,0 v 8.19 c 0,0.055 0.045,0.1 0.1,0.1 h 100 c 0.055,0 0.1,-0.045 0.1,-0.1"
       stroke="#000000"
       stroke-width="0.2"
       id="path821"
       style="fill:none;stroke:#ff0000;stroke-linecap:round;stroke-linejoin:round"
       sodipodi:nodetypes="csssccssssssccssssssccssssssssssssssssssssssssssssssssssc" />
    <path
       d="m 583.76166,175.80765 v -8.19 c 0,-0.1 -0.1,0 0,0 h 3.9 c 0.055,0 0.1,-0.045 0.1,-0.1 v -8 c 0,-0.055 -0.045,-0.1 -0.1,-0.1 h -3.9 c -0.1,0 0,0.1 0,0 v -7.8 c 0,-0.1 -0.1,0 0,0 h 3.9 c 0.055,0 0.1,-0.045 0.1,-0.1 v -8 c 0,-0.055 -0.045,-0.1 -0.1,-0.1 h -3.9 c -0.1,0 0,0.1 0,0 v -7.8 c 0,-0.1 -0.1,0 0,0 h 3.9 c 0.055,0 0.1,-0.045 0.1,-0.1 v -8 c 0,-0.055 -0.045,-0.1 -0.1,-0.1 h -3.9 c -0.1,0 0,0.1 0,0 v -8.19 c 0,-0.055 -0.045,-0.1 -0.1,-0.1 m -100,0 c -0.055,0 -0.1,0.045 -0.1,0.1 v 8.19 c 0,0.1 0.1,0 0,0 h -3.9 c -0.055,0 -0.1,0.045 -0.1,0.1 v 8 c 0,0.055 0.045,0.1 0.1,0.1 h 3.9 c 0.1,0 0,-0.1 0,0 v 7.8 c 0,0.1 0.1,0 0,0 h -3.9 c -0.055,0 -0.1,0.045 -0.1,0.1 v 8 c 0,0.055 0.045,0.1 0.1,0.1 h 3.9 c 0.1,0 0,-0.1 0,0 v 7.8 c 0,0.1 0.1,0 0,0 h -3.9 c -0.055,0 -0.1,0.045 -0.1,0.1 v 8 c 0,0.055 0.045,0.1 0.1,0.1 h 3.9 c 0.1,0 0,-0.1 0,0 v 8.19 c 0,0.056 0.045,0.1 0.1,0.1 h 100 c 0.055,0 0.1,-0.044 0.1,-0.1"
       stroke="#000000"
       stroke-width="0.2"
       id="path826"
       style="fill:none;stroke:#ff0000;stroke-linecap:round;stroke-linejoin:round"
       sodipodi:nodetypes="csssssssssssssssssssssssssccssssssssssssssssssssssssssccc" />
    <path
       d="m 475.56166,119.02665 v -8.19 c 0,-0.1 -0.1,0 0,0 h 3.9 c 0.055,0 0.1,-0.045 0.1,-0.1 m 0,-8 c 0,-0.055 -0.045,-0.1 -0.1,-0.1 h -3.9 c -0.1,0 0,0.1 0,0 v -7.799997 c 0,-0.1 -0.1,0 0,0 h 3.9 c 0.055,0 0.1,-0.045 0.1,-0.1 m 0,-8 c 0,-0.055 -0.045,-0.1 -0.1,-0.1 h -3.9 c -0.1,0 0,0.1 0,0 v -7.8 c 0,-0.1 -0.1,0 0,0 h 3.9 c 0.055,0 0.1,-0.045 0.1,-0.1 m 0,-8 c 0,-0.055 -0.045,-0.1 -0.1,-0.1 h -3.9 c -0.1,0 0,0.1 0,0 v -8.19 c 0,-0.056 -0.045,-0.1 -0.1,-0.1 m -100,0 c -0.055,0 -0.1,0.044 -0.1,0.1 v 8.19 c 0,0.1 0.1,0 0,0 h -3.9 c -0.055,0 -0.1,0.045 -0.1,0.1 m 0,8 c 0,0.055 0.045,0.1 0.1,0.1 h 3.9 c 0.1,0 0,-0.1 0,0 v 7.8 c 0,0.1 0.1,0 0,0 h -3.9 c -0.055,0 -0.1,0.045 -0.1,0.1 m 0,8 c 0,0.055 0.045,0.1 0.1,0.1 h 3.9 c 0.1,0 0,-0.1 0,0 v 7.799997 c 0,0.1 0.1,0 0,0 h -3.9 c -0.055,0 -0.1,0.045 -0.1,0.1 m 0,8 c 0,0.055 0.045,0.1 0.1,0.1 h 3.9 c 0.1,0 0,-0.1 0,0 v 8.19 c 0,0.055 0.045,0.1 0.1,0.1 m 100,0 c 0.055,0 0.1,-0.045 0.1,-0.1"
       stroke="#000000"
       stroke-width="0.2"
       id="path831"
       sodipodi:nodetypes="csssccssssssccssssssccssssccssssccssssssccssssssccssssccc"
       style="fill:none;stroke:#ff0000;stroke-linecap:round;stroke-linejoin:round" />
    <path
       d="m 367.36166,62.246152 v -8.19 c 0,-0.1 -0.1,0 0,0 h 3.9 c 0.055,0 0.1,-0.045 0.1,-0.1 m 0,-8 c 0,-0.056 -0.045,-0.1 -0.1,-0.1 h -3.9 c -0.1,0 0,0.1 0,0 v -7.8 c 0,-0.1 -0.1,0 0,0 h 3.9 c 0.055,0 0.1,-0.045 0.1,-0.1 m 0,-8 c 0,-0.056 -0.045,-0.1 -0.1,-0.1 h -3.9 c -0.1,0 0,0.1 0,0 v -7.8 c 0,-0.1 -0.1,0 0,0 h 3.9 c 0.055,0 0.1,-0.045 0.1,-0.1 m 0,-8 c 0,-0.056 -0.045,-0.1 -0.1,-0.1 h -3.9 c -0.1,0 0,0.1 0,0 v -8.191 c 0,-0.055 -0.045,-0.1 -0.1,-0.1 h -100 c -0.055,0 -0.1,0.045 -0.1,0.1 v 8.191 c 0,0.1 0.1,0 0,0 h -3.9 c -0.055,0 -0.1,0.044 -0.1,0.1 v 8 c 0,0.055 0.045,0.1 0.1,0.1 h 3.9 c 0.1,0 0,-0.1 0,0 v 7.8 c 0,0.1 0.1,0 0,0 h -3.9 c -0.055,0 -0.1,0.044 -0.1,0.1 v 8 c 0,0.055 0.045,0.1 0.1,0.1 h 3.9 c 0.1,0 0,-0.1 0,0 v 7.8 c 0,0.1 0.1,0 0,0 h -3.9 c -0.055,0 -0.1,0.044 -0.1,0.1 v 8 c 0,0.055 0.045,0.1 0.1,0.1 h 3.9 c 0.1,0 0,-0.1 0,0 v 8.19 c 0,0.055 0.045,0.1 0.1,0.1 m 100,0 c 0.055,0 0.1,-0.045 0.1,-0.1"
       stroke="#000000"
       stroke-width="0.2"
       id="path836"
       style="fill:none;stroke:#ff0000;stroke-linecap:round;stroke-linejoin:round"
       sodipodi:nodetypes="csssccssssssccssssssccssssssssssssssssssssssssssssssssccc" />
    <path
       d="m 367.36166,119.02715 v -8.19 c 0,-0.1 -0.1,0 0,0 h 3.9 c 0.055,0 0.1,-0.045 0.1,-0.1 v -8 c 0,-0.056 -0.045,-0.1 -0.1,-0.1 h -3.9 c -0.1,0 0,0.1 0,0 v -7.799998 c 0,-0.1 -0.1,0 0,0 h 3.9 c 0.055,0 0.1,-0.045 0.1,-0.1 v -8 c 0,-0.056 -0.045,-0.1 -0.1,-0.1 h -3.9 c -0.1,0 0,0.1 0,0 v -7.8 c 0,-0.1 -0.1,0 0,0 h 3.9 c 0.055,0 0.1,-0.045 0.1,-0.1 v -8 c 0,-0.056 -0.045,-0.1 -0.1,-0.1 h -3.9 c -0.1,0 0,0.1 0,0 v -8.191 c 0,-0.055 -0.045,-0.1 -0.1,-0.1 h -100 c -0.055,0 -0.1,0.045 -0.1,0.1 v 8.191 c 0,0.1 0.1,0 0,0 h -3.9 c -0.055,0 -0.1,0.044 -0.1,0.1 v 8 c 0,0.055 0.045,0.1 0.1,0.1 h 3.9 c 0.1,0 0,-0.1 0,0 v 7.8 c 0,0.1 0.1,0 0,0 h -3.9 c -0.055,0 -0.1,0.044 -0.1,0.1 v 8 c 0,0.055 0.045,0.1 0.1,0.1 h 3.9 c 0.1,0 0,-0.1 0,0 v 7.799998 c 0,0.1 0.1,0 0,0 h -3.9 c -0.055,0 -0.1,0.044 -0.1,0.1 v 8 c 0,0.055 0.045,0.1 0.1,0.1 h 3.9 c 0.1,0 0,-0.1 0,0 v 8.19 c 0,0.055 0.045,0.1 0.1,0.1 h 100 c 0.055,0 0.1,-0.045 0.1,-0.1"
       stroke="#000000"
       stroke-width="0.2"
       id="path851"
       style="fill:none;stroke:#ff0000;stroke-linecap:round;stroke-linejoin:round" />
    <path
       d="m 583.76166,119.02665 v -8.19 c 0,-0.1 -0.1,0 0,0 h 3.9 c 0.055,0 0.1,-0.045 0.1,-0.1 v -8 c 0,-0.055 -0.045,-0.1 -0.1,-0.1 h -3.9 c -0.1,0 0,0.1 0,0 v -7.799999 c 0,-0.1 -0.1,0 0,0 h 3.9 c 0.055,0 0.1,-0.045 0.1,-0.1 v -8 c 0,-0.055 -0.045,-0.1 -0.1,-0.1 h -3.9 c -0.1,0 0,0.1 0,0 v -7.8 c 0,-0.1 -0.1,0 0,0 h 3.9 c 0.055,0 0.1,-0.045 0.1,-0.1 v -8 c 0,-0.055 -0.045,-0.1 -0.1,-0.1 h -3.9 c -0.1,0 0,0.1 0,0 v -8.189999 c 0,-0.055 -0.045,-0.1 -0.1,-0.1 h -100 c -0.055,0 -0.1,0.045 -0.1,0.1 v 8.189999 c 0,0.1 0.1,0 0,0 h -3.9 c -0.055,0 -0.1,0.045 -0.1,0.1 v 8 c 0,0.055 0.045,0.1 0.1,0.1 h 3.9 c 0.1,0 0,-0.1 0,0 v 7.8 c 0,0.1 0.1,0 0,0 h -3.9 c -0.055,0 -0.1,0.045 -0.1,0.1 v 8 c 0,0.055 0.045,0.1 0.1,0.1 h 3.9 c 0.1,0 0,-0.1 0,0 v 7.799999 c 0,0.1 0.1,0 0,0 h -3.9 c -0.055,0 -0.1,0.045 -0.1,0.1 v 8 c 0,0.055 0.045,0.1 0.1,0.1 h 3.9 c 0.1,0 0,-0.1 0,0 v 8.19 c 0,0.056 0.045,0.1 0.1,0.1 h 100 c 0.055,0 0.1,-0.044 0.1,-0.1"
       stroke="#000000"
       stroke-width="0.2"
       id="path856"
       style="fill:none;stroke:#ff0000;stroke-linecap:round;stroke-linejoin:round" />
  </g>
  <text
     alignment-baseline="hanging"
     font-size="4px"
     style="font-style:normal;font-weight:normal;font-family:sans-serif;fill:#ff0000;stroke:#ff0000;stroke-linecap:round;stroke-linejoin:round"
     text-anchor="middle"
     transform="rotate(-90)"
     id="text864"
     x="-204.29915"
     y="310.06998" />
  <text
     alignment-baseline="hanging"
     font-size="4px"
     style="font-style:normal;font-weight:normal;font-family:sans-serif;fill:#ff0000;stroke:#ff0000;stroke-linecap:round;stroke-linejoin:round"
     text-anchor="middle"
     transform="rotate(-90)"
     id="text869"
     x="-204.29865"
     y="526.46997" />
  <g
     id="g2848"
     transform="rotate(90,84.417828,255.11792)"
     style="stroke:#0000ff">
    <path
       id="path1181"
       style="fill:none;fill-opacity:0.717742;stroke:#0000ff;stroke-width:0.1;stroke-linecap:round;stroke-linejoin:round"
       d="m 20.53518,-5.2415405 c -11.0799994,0 -20.48505386,17.8396255 -20.48505386,39.9996245 V 159.04662 c 0,22.15999 8.93459666,39.42795 19.99981286,40.00013 H 122.38374 c 0,-1.93601 0,-5.45288 0,-7.87341 h 3.96617 v -8.00003 h -3.96617 v -8.00002 h 3.96617 v -8.00003 h -3.96617 v -8.00003 h 3.96617 v -8.00003 h -3.96617 v -8.00003 h 3.96617 v -8.00003 h -3.96617 v -8.00002 h 3.96617 v -7.99952 h -3.96617 v -8.00003 h 3.96617 v -8.00002 h -3.96617 v -8.000032 h 3.96617 v -8.000029 h -3.96617 v -8.000028 h 3.96617 v -8.000029 h -3.96617 v -8.000029 h 3.96617 v -8.000026 h -3.96617 v -8.000029 h 3.96617 v -8.000029 h -3.96617 V 31.17329 h 3.96617 v -8.000028 h -3.96617 v -8.000028 h 3.96617 V 7.1732054 h -3.96617 V -5.2415405 Z"
       sodipodi:nodetypes="ssssccccccccccccccccccccccccccccccccccccccccccccccccccs" />
    <path
       d="m 59.62934,89.08968 c -8.41903,0 -16.660057,-2.419631 -23.742852,-6.97142 C 28.8037,77.56654 23.178845,71.074603 19.681435,63.416879 16.184095,55.759155 14.96208,47.256815 16.159765,38.923025 17.3583,30.590165 20.926825,22.777 26.439315,16.414295 31.95276,10.051585 39.178754,5.4080733 47.256905,3.036221 c 8.077293,-2.3718521 16.66758,-2.3718521 24.744869,0 8.078151,2.3718523 15.304144,7.015364 20.817589,13.378074 5.512491,6.362705 9.081027,14.17587 10.279517,22.50873 1.19771,8.33379 -0.0245,16.83613 -3.521631,24.493854 -3.497414,7.657724 -9.12227,14.149661 -16.205059,18.701381 -7.08279,4.551789 -15.323822,6.97142 -23.74285,6.97142 z"
       stroke="#0000ff"
       stroke-width="0.18728"
       id="path586"
       style="fill:none;stroke:#0000ff;stroke-linecap:round;stroke-linejoin:round" />
    <path
       d="m 9.10734,34.47936 -1.95,3.378 c -0.05,0.087 0.087,0.05 0,0 l -3.291,-1.9 c -0.086,-0.05 -0.05,0.087 0,0 l 3.9,-6.755 c 0.05,-0.087 -0.086,-0.05 0,0 l 3.291,1.9 c 0.087,0.05 0.05,-0.087 0,0 z"
       stroke="#0000ff"
       stroke-width="0.2"
       id="path588"
       style="fill:none;stroke:#0000ff;stroke-linecap:round;stroke-linejoin:round" />
    <path
       d="m 17.10734,20.62336 -1.95,3.377 c -0.05,0.087 0.087,0.05 0,0 l -3.291,-1.9 c -0.086,-0.05 -0.05,0.087 0,0 l 3.9,-6.754 c 0.05,-0.087 -0.086,-0.05 0,0 l 3.291,1.9 c 0.087,0.05 0.05,-0.087 0,0 z"
       stroke="#0000ff"
       stroke-width="0.2"
       id="path590"
       style="fill:none;stroke:#0000ff;stroke-linecap:round;stroke-linejoin:round" />
    <path
       d="m 25.10734,6.76736 -1.95,3.377 c -0.05,0.087 0.087,0.05 0,0 l -3.291,-1.9 c -0.086,-0.05 -0.05,0.087 0,0 l 3.9,-6.755 c 0.05,-0.087 -0.086,-0.05 0,0 l 3.291,1.9 c 0.087,0.05 0.05,-0.087 0,0 z"
       stroke="#0000ff"
       stroke-width="0.2"
       id="path592"
       style="fill:none;stroke:#0000ff;stroke-linecap:round;stroke-linejoin:round" />
    <path
       d="m 5.81634,57.76736 -1.95,-3.378 c -0.05,-0.087 -0.086,0.05 0,0 l 3.291,-1.9 c 0.087,-0.05 -0.05,-0.087 0,0 l 3.9,6.755 c 0.05,0.087 0.087,-0.05 0,0 l -3.291,1.9 c -0.086,0.05 0.05,0.087 0,0 z"
       stroke="#0000ff"
       stroke-width="0.2"
       id="path594"
       style="fill:none;stroke:#0000ff;stroke-linecap:round;stroke-linejoin:round" />
    <path
       d="m 13.81634,71.62336 -1.95,-3.377 c -0.05,-0.087 -0.086,0.05 0,0 l 3.291,-1.9 c 0.087,-0.05 -0.05,-0.087 0,0 l 3.9,6.754 c 0.05,0.087 0.087,-0.05 0,0 l -3.291,1.9 c -0.086,0.05 0.05,0.087 0,0 z"
       stroke="#0000ff"
       stroke-width="0.2"
       id="path596"
       style="fill:none;stroke:#0000ff;stroke-linecap:round;stroke-linejoin:round" />
    <path
       d="m 21.81634,85.47936 -1.95,-3.377 c -0.05,-0.087 -0.086,0.05 0,0 l 3.291,-1.9 c 0.087,-0.05 -0.05,-0.087 0,0 l 3.9,6.755 c 0.05,0.087 0.087,-0.05 0,0 l -3.291,1.9 c -0.086,0.05 0.05,0.087 0,0 z"
       stroke="#0000ff"
       stroke-width="0.2"
       id="path598"
       style="fill:none;stroke:#0000ff;stroke-linecap:round;stroke-linejoin:round" />
    <path
       d="m 43.62934,98.07336 h -3.9 c -0.1,0 0,0.1 0,0 v -3.8 c 0,-0.1 -0.1,0 0,0 h 7.8 c 0.1,0 0,-0.1 0,0 v 3.8 c 0,0.1 0.1,0 0,0 z"
       stroke="#0000ff"
       stroke-width="0.2"
       id="path600"
       style="fill:none;stroke:#0000ff;stroke-linecap:round;stroke-linejoin:round" />
    <path
       d="m 59.62934,98.07336 h -3.9 c -0.1,0 0,0.1 0,0 v -3.8 c 0,-0.1 -0.1,0 0,0 h 7.8 c 0.1,0 0,-0.1 0,0 v 3.8 c 0,0.1 0.1,0 0,0 z"
       stroke="#0000ff"
       stroke-width="0.2"
       id="path602"
       style="fill:none;stroke:#0000ff;stroke-linecap:round;stroke-linejoin:round" />
    <path
       d="m 75.62934,98.07336 h -3.9 c -0.1,0 0,0.1 0,0 v -3.8 c 0,-0.1 -0.1,0 0,0 h 7.8 c 0.1,0 0,-0.1 0,0 v 3.8 c 0,0.1 0.1,0 0,0 z"
       stroke="#0000ff"
       stroke-width="0.2"
       id="path604"
       style="fill:none;stroke:#0000ff;stroke-linecap:round;stroke-linejoin:round" />
    <path
       d="m 113.44234,32.57936 1.95,3.378 c 0.05,0.087 0.086,-0.05 0,0 l -3.291,1.9 c -0.087,0.05 0.05,0.087 0,0 l -3.9,-6.755 c -0.05,-0.087 -0.087,0.05 0,0 l 3.291,-1.9 c 0.086,-0.05 -0.05,-0.087 0,0 z"
       stroke="#0000ff"
       stroke-width="0.2"
       id="path606"
       style="fill:none;stroke:#0000ff;stroke-linecap:round;stroke-linejoin:round" />
    <path
       d="m 105.44234,18.72336 1.95,3.377 c 0.05,0.087 0.086,-0.05 0,0 l -3.291,1.9 c -0.087,0.05 0.05,0.087 0,0 l -3.9,-6.754 c -0.05,-0.087 -0.087,0.05 0,0 l 3.291,-1.9 c 0.086,-0.05 -0.05,-0.087 0,0 z"
       stroke="#0000ff"
       stroke-width="0.2"
       id="path608"
       style="fill:none;stroke:#0000ff;stroke-linecap:round;stroke-linejoin:round" />
    <path
       d="m 97.44234,4.86736 1.95,3.377 c 0.05,0.087 0.086,-0.05 0,0 l -3.291,1.9 c -0.087,0.05 0.05,0.087 0,0 l -3.9,-6.755 c -0.05,-0.087 -0.087,0.05 0,0 l 3.291,-1.9 c 0.086,-0.05 -0.05,-0.087 0,0 z"
       stroke="#0000ff"
       stroke-width="0.2"
       id="path610"
       style="fill:none;stroke:#0000ff;stroke-linecap:round;stroke-linejoin:round" />
    <path
       d="m 110.15134,55.86736 1.95,-3.378 c 0.05,-0.087 -0.087,-0.05 0,0 l 3.291,1.9 c 0.086,0.05 0.05,-0.087 0,0 l -3.9,6.755 c -0.05,0.087 0.086,0.05 0,0 l -3.291,-1.9 c -0.087,-0.05 -0.05,0.087 0,0 z"
       stroke="#0000ff"
       stroke-width="0.2"
       id="path612"
       style="fill:none;stroke:#0000ff;stroke-linecap:round;stroke-linejoin:round" />
    <path
       d="m 102.15134,69.72336 1.95,-3.377 c 0.05,-0.087 -0.087,-0.05 0,0 l 3.291,1.9 c 0.086,0.05 0.05,-0.087 0,0 l -3.9,6.754 c -0.05,0.087 0.086,0.05 0,0 l -3.291,-1.9 c -0.087,-0.05 -0.05,0.087 0,0 z"
       stroke="#0000ff"
       stroke-width="0.2"
       id="path614"
       style="fill:none;stroke:#0000ff;stroke-linecap:round;stroke-linejoin:round" />
    <path
       d="m 94.15134,83.57936 1.95,-3.377 c 0.05,-0.087 -0.087,-0.05 0,0 l 3.291,1.9 c 0.086,0.05 0.05,-0.087 0,0 l -3.9,6.755 c -0.05,0.087 0.086,0.05 0,0 l -3.291,-1.9 c -0.087,-0.05 -0.05,0.087 0,0 z"
       stroke="#0000ff"
       stroke-width="0.2"
       id="path616"
       style="fill:none;stroke:#0000ff;stroke-linecap:round;stroke-linejoin:round" />
    <path
       d="m 59.62934,194.07336 c -8.991,0 -17.792,-2.584 -25.356,-7.445 -7.564,-4.861 -13.571,-11.794 -17.306,-19.972 -3.735,-8.178 -5.04,-17.258 -3.761,-26.158 1.28,-8.899 5.091,-17.243 10.978,-24.038 5.888,-6.795 13.605,-11.754 22.232,-14.287 8.626,-2.533 17.8,-2.533 26.426,0 8.627,2.533 16.344,7.492 22.232,14.287 5.887,6.795 9.698,15.139 10.978,24.038 1.279,8.9 -0.026,17.98 -3.761,26.158 -3.735,8.178 -9.742,15.111 -17.306,19.972 -7.564,4.861 -16.365,7.445 -25.356,7.445 z"
       stroke="#0000ff"
       stroke-width="0.2"
       id="path618"
       style="fill:none;stroke:#0000ff;stroke-linecap:round;stroke-linejoin:round" />
    <path
       d="m 9.10734,136.47936 -1.95,3.378 c -0.05,0.087 0.087,0.05 0,0 l -3.291,-1.9 c -0.086,-0.05 -0.05,0.087 0,0 l 3.9,-6.755 c 0.05,-0.087 -0.086,-0.05 0,0 l 3.291,1.9 c 0.087,0.05 0.05,-0.087 0,0 z"
       stroke="#0000ff"
       stroke-width="0.2"
       id="path620"
       style="fill:none;stroke:#0000ff;stroke-linecap:round;stroke-linejoin:round" />
    <path
       d="m 17.10734,122.62336 -1.95,3.377 c -0.05,0.087 0.087,0.05 0,0 l -3.291,-1.9 c -0.086,-0.05 -0.05,0.087 0,0 l 3.9,-6.754 c 0.05,-0.087 -0.086,-0.05 0,0 l 3.291,1.9 c 0.087,0.05 0.05,-0.087 0,0 z"
       stroke="#0000ff"
       stroke-width="0.2"
       id="path622"
       style="fill:none;stroke:#0000ff;stroke-linecap:round;stroke-linejoin:round" />
    <path
       d="m 25.10734,108.76736 -1.95,3.377 c -0.05,0.087 0.087,0.05 0,0 l -3.291,-1.9 c -0.086,-0.05 -0.05,0.087 0,0 l 3.9,-6.755 c 0.05,-0.087 -0.086,-0.05 0,0 l 3.291,1.9 c 0.087,0.05 0.05,-0.087 0,0 z"
       stroke="#0000ff"
       stroke-width="0.2"
       id="path624"
       style="fill:none;stroke:#0000ff;stroke-linecap:round;stroke-linejoin:round" />
    <path
       d="m 5.81634,159.76736 -1.95,-3.378 c -0.05,-0.087 -0.086,0.05 0,0 l 3.291,-1.9 c 0.087,-0.05 -0.05,-0.087 0,0 l 3.9,6.755 c 0.05,0.087 0.087,-0.05 0,0 l -3.291,1.9 c -0.086,0.05 0.05,0.087 0,0 z"
       stroke="#0000ff"
       stroke-width="0.2"
       id="path626"
       style="fill:none;stroke:#0000ff;stroke-linecap:round;stroke-linejoin:round" />
    <path
       d="m 13.81634,173.62336 -1.95,-3.377 c -0.05,-0.087 -0.086,0.05 0,0 l 3.291,-1.9 c 0.087,-0.05 -0.05,-0.087 0,0 l 3.9,6.754 c 0.05,0.087 0.087,-0.05 0,0 l -3.291,1.9 c -0.086,0.05 0.05,0.087 0,0 z"
       stroke="#0000ff"
       stroke-width="0.2"
       id="path628"
       style="fill:none;stroke:#0000ff;stroke-linecap:round;stroke-linejoin:round" />
    <path
       d="m 21.81634,187.47936 -1.95,-3.377 c -0.05,-0.087 -0.086,0.05 0,0 l 3.291,-1.9 c 0.087,-0.05 -0.05,-0.087 0,0 l 3.9,6.755 c 0.05,0.087 0.087,-0.05 0,0 l -3.291,1.9 c -0.086,0.05 0.05,0.087 0,0 z"
       stroke="#0000ff"
       stroke-width="0.2"
       id="path630"
       style="fill:none;stroke:#0000ff;stroke-linecap:round;stroke-linejoin:round" />
    <path
       d="m 113.44234,134.57936 1.95,3.378 c 0.05,0.087 0.086,-0.05 0,0 l -3.291,1.9 c -0.087,0.05 0.05,0.087 0,0 l -3.9,-6.755 c -0.05,-0.087 -0.087,0.05 0,0 l 3.291,-1.9 c 0.086,-0.05 -0.05,-0.087 0,0 z"
       stroke="#0000ff"
       stroke-width="0.2"
       id="path638"
       style="fill:none;stroke:#0000ff;stroke-linecap:round;stroke-linejoin:round" />
    <path
       d="m 105.44234,120.72336 1.95,3.377 c 0.05,0.087 0.086,-0.05 0,0 l -3.291,1.9 c -0.087,0.05 0.05,0.087 0,0 l -3.9,-6.754 c -0.05,-0.087 -0.087,0.05 0,0 l 3.291,-1.9 c 0.086,-0.05 -0.05,-0.087 0,0 z"
       stroke="#0000ff"
       stroke-width="0.2"
       id="path640"
       style="fill:none;stroke:#0000ff;stroke-linecap:round;stroke-linejoin:round" />
    <path
       d="m 97.44234,106.86736 1.95,3.377 c 0.05,0.087 0.086,-0.05 0,0 l -3.291,1.9 c -0.087,0.05 0.05,0.087 0,0 l -3.9,-6.755 c -0.05,-0.087 -0.087,0.05 0,0 l 3.291,-1.9 c 0.086,-0.05 -0.05,-0.087 0,0 z"
       stroke="#0000ff"
       stroke-width="0.2"
       id="path642"
       style="fill:none;stroke:#0000ff;stroke-linecap:round;stroke-linejoin:round" />
    <path
       d="m 110.15134,157.86736 1.95,-3.378 c 0.05,-0.087 -0.087,-0.05 0,0 l 3.291,1.9 c 0.086,0.05 0.05,-0.087 0,0 l -3.9,6.755 c -0.05,0.087 0.086,0.05 0,0 l -3.291,-1.9 c -0.087,-0.05 -0.05,0.087 0,0 z"
       stroke="#0000ff"
       stroke-width="0.2"
       id="path644"
       style="fill:none;stroke:#0000ff;stroke-linecap:round;stroke-linejoin:round" />
    <path
       d="m 102.15134,171.72336 1.95,-3.377 c 0.05,-0.087 -0.087,-0.05 0,0 l 3.291,1.9 c 0.086,0.05 0.05,-0.087 0,0 l -3.9,6.754 c -0.05,0.087 0.086,0.05 0,0 l -3.291,-1.9 c -0.087,-0.05 -0.05,0.087 0,0 z"
       stroke="#0000ff"
       stroke-width="0.2"
       id="path646"
       style="fill:none;stroke:#0000ff;stroke-linecap:round;stroke-linejoin:round" />
    <path
       d="m 94.15134,185.57936 1.95,-3.377 c 0.05,-0.087 -0.087,-0.05 0,0 l 3.291,1.9 c 0.086,0.05 0.05,-0.087 0,0 l -3.9,6.755 c -0.05,0.087 0.086,0.05 0,0 l -3.291,-1.9 c -0.087,-0.05 -0.05,0.087 0,0 z"
       stroke="#0000ff"
       stroke-width="0.2"
       id="path648"
       style="fill:none;stroke:#0000ff;stroke-linecap:round;stroke-linejoin:round" />
  </g>
  <g
     id="g2773"
     transform="translate(0,5.2916666)">
    <path
       id="rect2249"
       style="fill:none;fill-opacity:0.717742;stroke:#008000;stroke-width:0.12726;stroke-linecap:round;stroke-linejoin:round"
       d="M 5.0636253,-5.2280343 H 135.06363 c 2.77,0 5,2.2299999 5,4.99999993 V 194.03336 c 0,2.77 -2.23,5 -5,5 H 5.0636253 c -2.77,0 -4.99999996,-2.23 -4.99999996,-5 V -0.22803437 c 0,-2.77000003 2.22999996,-4.99999993 4.99999996,-4.99999993 z"
       sodipodi:nodetypes="sssssssss" />
    <g
       id="g2722">
      <rect
         style="fill:none;fill-opacity:0.717742;stroke:#008000;stroke-width:0.1;stroke-linecap:round;stroke-linejoin:round"
         id="rect1715"
         width="4.0999999"
         height="8.1000004"
         x="7.9436975"
         y="7.1234884" />
      <rect
         style="fill:none;fill-opacity:0.717742;stroke:#008000;stroke-width:0.1;stroke-linecap:round;stroke-linejoin:round"
         id="rect1717"
         width="4.0999999"
         height="8.1000004"
         x="7.9436975"
         y="23.123489" />
      <rect
         style="fill:none;fill-opacity:0.717742;stroke:#008000;stroke-width:0.1;stroke-linecap:round;stroke-linejoin:round"
         id="rect1719"
         width="4.0999999"
         height="8.1000004"
         x="7.9436975"
         y="39.123489" />
      <rect
         style="fill:none;fill-opacity:0.717742;stroke:#008000;stroke-width:0.1;stroke-linecap:round;stroke-linejoin:round"
         id="rect1721"
         width="4.0999999"
         height="8.1000004"
         x="7.9436975"
         y="55.123489" />
      <rect
         style="fill:none;fill-opacity:0.717742;stroke:#008000;stroke-width:0.1;stroke-linecap:round;stroke-linejoin:round"
         id="rect1723"
         width="4.0999999"
         height="8.1000004"
         x="7.9436975"
         y="71.123489" />
      <rect
         style="fill:none;fill-opacity:0.717742;stroke:#008000;stroke-width:0.1;stroke-linecap:round;stroke-linejoin:round"
         id="rect1725"
         width="4.0999999"
         height="8.1000004"
         x="7.9436975"
         y="87.123489" />
      <rect
         style="fill:none;fill-opacity:0.717742;stroke:#008000;stroke-width:0.1;stroke-linecap:round;stroke-linejoin:round"
         id="rect1727"
         width="4.0999999"
         height="8.1000004"
         x="7.9436975"
         y="103.12349" />
      <rect
         style="fill:none;fill-opacity:0.717742;stroke:#008000;stroke-width:0.1;stroke-linecap:round;stroke-linejoin:round"
         id="rect1729"
         width="4.0999999"
         height="8.1000004"
         x="7.9436975"
         y="119.1235" />
      <rect
         style="fill:none;fill-opacity:0.717742;stroke:#008000;stroke-width:0.1;stroke-linecap:round;stroke-linejoin:round"
         id="rect1731"
         width="4.0999999"
         height="8.1000004"
         x="7.9436975"
         y="135.12349" />
      <rect
         style="fill:none;fill-opacity:0.717742;stroke:#008000;stroke-width:0.1;stroke-linecap:round;stroke-linejoin:round"
         id="rect1733"
         width="4.0999999"
         height="8.1000004"
         x="7.9436975"
         y="151.12349" />
      <rect
         style="fill:none;fill-opacity:0.717742;stroke:#008000;stroke-width:0.1;stroke-linecap:round;stroke-linejoin:round"
         id="rect1735"
         width="4.0999999"
         height="8.1000004"
         x="7.9436975"
         y="167.12349" />
      <rect
         style="fill:none;fill-opacity:0.717742;stroke:#008000;stroke-width:0.1;stroke-linecap:round;stroke-linejoin:round"
         id="rect1737"
         width="4.0999999"
         height="8.1000004"
         x="7.9436975"
         y="183.12349" />
    </g>
    <g
       id="g2736">
      <rect
         style="fill:none;fill-opacity:0.717742;stroke:#008000;stroke-width:0.1;stroke-linecap:round;stroke-linejoin:round"
         id="rect2282"
         width="4.0999999"
         height="8.1000004"
         x="112.18959"
         y="7.1234884" />
      <rect
         style="fill:none;fill-opacity:0.717742;stroke:#008000;stroke-width:0.1;stroke-linecap:round;stroke-linejoin:round"
         id="rect2284"
         width="4.0999999"
         height="8.1000004"
         x="112.18959"
         y="23.123489" />
      <rect
         style="fill:none;fill-opacity:0.717742;stroke:#008000;stroke-width:0.1;stroke-linecap:round;stroke-linejoin:round"
         id="rect2286"
         width="4.0999999"
         height="8.1000004"
         x="112.18959"
         y="39.123489" />
      <rect
         style="fill:none;fill-opacity:0.717742;stroke:#008000;stroke-width:0.1;stroke-linecap:round;stroke-linejoin:round"
         id="rect2288"
         width="4.0999999"
         height="8.1000004"
         x="112.18959"
         y="55.123489" />
      <rect
         style="fill:none;fill-opacity:0.717742;stroke:#008000;stroke-width:0.1;stroke-linecap:round;stroke-linejoin:round"
         id="rect2290"
         width="4.0999999"
         height="8.1000004"
         x="112.18959"
         y="71.123489" />
      <rect
         style="fill:none;fill-opacity:0.717742;stroke:#008000;stroke-width:0.1;stroke-linecap:round;stroke-linejoin:round"
         id="rect2292"
         width="4.0999999"
         height="8.1000004"
         x="112.18959"
         y="87.123489" />
      <rect
         style="fill:none;fill-opacity:0.717742;stroke:#008000;stroke-width:0.1;stroke-linecap:round;stroke-linejoin:round"
         id="rect2294"
         width="4.0999999"
         height="8.1000004"
         x="112.18959"
         y="103.12349" />
      <rect
         style="fill:none;fill-opacity:0.717742;stroke:#008000;stroke-width:0.1;stroke-linecap:round;stroke-linejoin:round"
         id="rect2296"
         width="4.0999999"
         height="8.1000004"
         x="112.18959"
         y="119.1235" />
      <rect
         style="fill:none;fill-opacity:0.717742;stroke:#008000;stroke-width:0.1;stroke-linecap:round;stroke-linejoin:round"
         id="rect2298"
         width="4.0999999"
         height="8.1000004"
         x="112.18959"
         y="135.12349" />
      <rect
         style="fill:none;fill-opacity:0.717742;stroke:#008000;stroke-width:0.1;stroke-linecap:round;stroke-linejoin:round"
         id="rect2300"
         width="4.0999999"
         height="8.1000004"
         x="112.18959"
         y="151.12349" />
      <rect
         style="fill:none;fill-opacity:0.717742;stroke:#008000;stroke-width:0.1;stroke-linecap:round;stroke-linejoin:round"
         id="rect2302"
         width="4.0999999"
         height="8.1000004"
         x="112.18959"
         y="167.12349" />
      <rect
         style="fill:none;fill-opacity:0.717742;stroke:#008000;stroke-width:0.1;stroke-linecap:round;stroke-linejoin:round"
         id="rect2304"
         width="4.0999999"
         height="8.1000004"
         x="112.18959"
         y="183.12349" />
    </g>
    <g
       id="g2741"
       transform="translate(0,-13.170842)">
      <circle
         style="fill:none;fill-opacity:0.717742;stroke:#008000;stroke-width:0.084519;stroke-linecap:round;stroke-linejoin:round"
         id="path2442"
         cx="130.01303"
         cy="22.973501"
         r="2.0577404" />
      <circle
         style="fill:none;fill-opacity:0.717742;stroke:#008000;stroke-width:0.084519;stroke-linecap:round;stroke-linejoin:round"
         id="circle2444"
         cx="130.01303"
         cy="197.17351"
         r="2.0577404" />
    </g>
  </g>
  <g
     id="g2805"
     transform="rotate(-90,388.6433,38.464759)"
     style="stroke:#0000ff">
    <path
       d="m 247.42625,157.86945 1.95,-3.378 c 0.05,-0.087 -0.087,-0.05 0,0 l 3.291,1.9 c 0.086,0.05 0.05,-0.087 0,0 l -3.9,6.755 c -0.05,0.087 0.086,0.05 0,0 l -3.291,-1.9 c -0.087,-0.05 -0.05,0.087 0,0 z"
       stroke="#0000ff"
       stroke-width="0.2"
       id="path723"
       style="fill:none;stroke:#0000ff;stroke-linecap:round;stroke-linejoin:round" />
    <path
       d="m 239.42625,171.72545 1.95,-3.377 c 0.05,-0.087 -0.087,-0.05 0,0 l 3.291,1.9 c 0.086,0.05 0.05,-0.087 0,0 l -3.9,6.754 c -0.05,0.087 0.086,0.05 0,0 l -3.291,-1.9 c -0.087,-0.05 -0.05,0.087 0,0 z"
       stroke="#0000ff"
       stroke-width="0.2"
       id="path725"
       style="fill:none;stroke:#0000ff;stroke-linecap:round;stroke-linejoin:round" />
    <path
       d="m 231.42625,185.58145 1.95,-3.377 c 0.05,-0.087 -0.087,-0.05 0,0 l 3.291,1.9 c 0.086,0.05 0.05,-0.087 0,0 l -3.9,6.755 c -0.05,0.087 0.086,0.05 0,0 l -3.291,-1.9 c -0.087,-0.05 -0.05,0.087 0,0 z"
       stroke="#0000ff"
       stroke-width="0.2"
       id="path727"
       style="fill:none;stroke:#0000ff;stroke-linecap:round;stroke-linejoin:round" />
    <path
       d="m 250.71725,134.58145 1.95,3.378 c 0.05,0.087 0.086,-0.05 0,0 l -3.291,1.9 c -0.087,0.05 0.05,0.087 0,0 l -3.9,-6.755 c -0.05,-0.087 -0.087,0.05 0,0 l 3.291,-1.9 c 0.086,-0.05 -0.05,-0.087 0,0 z"
       stroke="#0000ff"
       stroke-width="0.2"
       id="path729"
       style="fill:none;stroke:#0000ff;stroke-linecap:round;stroke-linejoin:round" />
    <path
       d="m 242.71725,120.72545 1.95,3.377 c 0.05,0.087 0.086,-0.05 0,0 l -3.291,1.9 c -0.087,0.05 0.05,0.087 0,0 l -3.9,-6.754 c -0.05,-0.087 -0.087,0.05 0,0 l 3.291,-1.9 c 0.086,-0.05 -0.05,-0.087 0,0 z"
       stroke="#0000ff"
       stroke-width="0.2"
       id="path731"
       style="fill:none;stroke:#0000ff;stroke-linecap:round;stroke-linejoin:round" />
    <path
       d="m 234.71725,106.86945 1.95,3.377 c 0.05,0.087 0.086,-0.05 0,0 l -3.291,1.9 c -0.087,0.05 0.05,0.087 0,0 l -3.9,-6.755 c -0.05,-0.087 -0.087,0.05 0,0 l 3.291,-1.9 c 0.086,-0.05 -0.05,-0.087 0,0 z"
       stroke="#0000ff"
       stroke-width="0.2"
       id="path733"
       style="fill:none;stroke:#0000ff;stroke-linecap:round;stroke-linejoin:round" />
    <path
       d="m 212.90425,94.27545 h 3.9 c 0.1,0 0,-0.1 0,0 v 3.8 c 0,0.1 0.1,0 0,0 h -7.8 c -0.1,0 0,0.1 0,0 v -3.8 c 0,-0.1 -0.1,0 0,0 z"
       stroke="#0000ff"
       stroke-width="0.2"
       id="path735"
       style="fill:none;stroke:#0000ff;stroke-linecap:round;stroke-linejoin:round" />
    <path
       d="m 196.90425,94.27545 h 3.9 c 0.1,0 0,-0.1 0,0 v 3.8 c 0,0.1 0.1,0 0,0 h -7.8 c -0.1,0 0,0.1 0,0 v -3.8 c 0,-0.1 -0.1,0 0,0 z"
       stroke="#0000ff"
       stroke-width="0.2"
       id="path737"
       style="fill:none;stroke:#0000ff;stroke-linecap:round;stroke-linejoin:round" />
    <path
       d="m 180.90425,94.27545 h 3.9 c 0.1,0 0,-0.1 0,0 v 3.8 c 0,0.1 0.1,0 0,0 h -7.8 c -0.1,0 0,0.1 0,0 v -3.8 c 0,-0.1 -0.1,0 0,0 z"
       stroke="#0000ff"
       stroke-width="0.2"
       id="path739"
       style="fill:none;stroke:#0000ff;stroke-linecap:round;stroke-linejoin:round" />
    <path
       d="m 143.09125,159.76945 -1.95,-3.378 c -0.05,-0.087 -0.086,0.05 0,0 l 3.291,-1.9 c 0.087,-0.05 -0.05,-0.087 0,0 l 3.9,6.755 c 0.05,0.087 0.087,-0.05 0,0 l -3.291,1.9 c -0.086,0.05 0.05,0.087 0,0 z"
       stroke="#0000ff"
       stroke-width="0.2"
       id="path741"
       style="fill:none;stroke:#0000ff;stroke-linecap:round;stroke-linejoin:round" />
    <path
       d="m 151.09125,173.62545 -1.95,-3.377 c -0.05,-0.087 -0.086,0.05 0,0 l 3.291,-1.9 c 0.087,-0.05 -0.05,-0.087 0,0 l 3.9,6.754 c 0.05,0.087 0.087,-0.05 0,0 l -3.291,1.9 c -0.086,0.05 0.05,0.087 0,0 z"
       stroke="#0000ff"
       stroke-width="0.2"
       id="path743"
       style="fill:none;stroke:#0000ff;stroke-linecap:round;stroke-linejoin:round" />
    <path
       d="m 159.09125,187.48145 -1.95,-3.377 c -0.05,-0.087 -0.086,0.05 0,0 l 3.291,-1.9 c 0.087,-0.05 -0.05,-0.087 0,0 l 3.9,6.755 c 0.05,0.087 0.087,-0.05 0,0 l -3.291,1.9 c -0.086,0.05 0.05,0.087 0,0 z"
       stroke="#0000ff"
       stroke-width="0.2"
       id="path745"
       style="fill:none;stroke:#0000ff;stroke-linecap:round;stroke-linejoin:round" />
    <path
       d="m 146.38225,136.48145 -1.95,3.378 c -0.05,0.087 0.087,0.05 0,0 l -3.291,-1.9 c -0.086,-0.05 -0.05,0.087 0,0 l 3.9,-6.755 c 0.05,-0.087 -0.086,-0.05 0,0 l 3.291,1.9 c 0.087,0.05 0.05,-0.087 0,0 z"
       stroke="#0000ff"
       stroke-width="0.2"
       id="path747"
       style="fill:none;stroke:#0000ff;stroke-linecap:round;stroke-linejoin:round" />
    <path
       d="m 154.38225,122.62545 -1.95,3.377 c -0.05,0.087 0.087,0.05 0,0 l -3.291,-1.9 c -0.086,-0.05 -0.05,0.087 0,0 l 3.9,-6.754 c 0.05,-0.087 -0.086,-0.05 0,0 l 3.291,1.9 c 0.087,0.05 0.05,-0.087 0,0 z"
       stroke="#0000ff"
       stroke-width="0.2"
       id="path749"
       style="fill:none;stroke:#0000ff;stroke-linecap:round;stroke-linejoin:round" />
    <path
       d="m 162.38225,108.76945 -1.95,3.377 c -0.05,0.087 0.087,0.05 0,0 l -3.291,-1.9 c -0.086,-0.05 -0.05,0.087 0,0 l 3.9,-6.755 c 0.05,-0.087 -0.086,-0.05 0,0 l 3.291,1.9 c 0.087,0.05 0.05,-0.087 0,0 z"
       stroke="#0000ff"
       stroke-width="0.2"
       id="path751"
       style="fill:none;stroke:#0000ff;stroke-linecap:round;stroke-linejoin:round" />
    <path
       d="m 247.42625,55.86945 1.95,-3.378 c 0.05,-0.087 -0.087,-0.05 0,0 l 3.291,1.9 c 0.086,0.05 0.05,-0.087 0,0 l -3.9,6.755 c -0.05,0.087 0.086,0.05 0,0 l -3.291,-1.9 c -0.087,-0.05 -0.05,0.087 0,0 z"
       stroke="#0000ff"
       stroke-width="0.2"
       id="path753"
       style="fill:none;stroke:#0000ff;stroke-linecap:round;stroke-linejoin:round" />
    <path
       d="m 239.42625,69.72545 1.95,-3.377 c 0.05,-0.087 -0.087,-0.05 0,0 l 3.291,1.9 c 0.086,0.05 0.05,-0.087 0,0 l -3.9,6.754 c -0.05,0.087 0.086,0.05 0,0 l -3.291,-1.9 c -0.087,-0.05 -0.05,0.087 0,0 z"
       stroke="#0000ff"
       stroke-width="0.2"
       id="path755"
       style="fill:none;stroke:#0000ff;stroke-linecap:round;stroke-linejoin:round" />
    <path
       d="m 231.42625,83.58145 1.95,-3.377 c 0.05,-0.087 -0.087,-0.05 0,0 l 3.291,1.9 c 0.086,0.05 0.05,-0.087 0,0 l -3.9,6.755 c -0.05,0.087 0.086,0.05 0,0 l -3.291,-1.9 c -0.087,-0.05 -0.05,0.087 0,0 z"
       stroke="#0000ff"
       stroke-width="0.2"
       id="path757"
       style="fill:none;stroke:#0000ff;stroke-linecap:round;stroke-linejoin:round" />
    <path
       d="m 250.71725,32.58145 1.95,3.378 c 0.05,0.087 0.086,-0.05 0,0 l -3.291,1.9 c -0.087,0.05 0.05,0.087 0,0 l -3.9,-6.755 c -0.05,-0.087 -0.087,0.05 0,0 l 3.291,-1.9 c 0.086,-0.05 -0.05,-0.087 0,0 z"
       stroke="#0000ff"
       stroke-width="0.2"
       id="path759"
       style="fill:none;stroke:#0000ff;stroke-linecap:round;stroke-linejoin:round" />
    <path
       d="m 242.71725,18.72545 1.95,3.377 c 0.05,0.087 0.086,-0.05 0,0 l -3.291,1.9 c -0.087,0.05 0.05,0.087 0,0 l -3.9,-6.754 c -0.05,-0.087 -0.087,0.05 0,0 l 3.291,-1.9 c 0.086,-0.05 -0.05,-0.087 0,0 z"
       stroke="#0000ff"
       stroke-width="0.2"
       id="path761"
       style="fill:none;stroke:#0000ff;stroke-linecap:round;stroke-linejoin:round" />
    <path
       d="m 234.71725,4.86945 1.95,3.377 c 0.05,0.087 0.086,-0.05 0,0 l -3.291,1.9 c -0.087,0.05 0.05,0.087 0,0 l -3.9,-6.755 c -0.05,-0.087 -0.087,0.05 0,0 l 3.291,-1.9 c 0.086,-0.05 -0.05,-0.087 0,0 z"
       stroke="#0000ff"
       stroke-width="0.2"
       id="path763"
       style="fill:none;stroke:#0000ff;stroke-linecap:round;stroke-linejoin:round" />
    <path
       d="m 143.09125,57.76945 -1.95,-3.378 c -0.05,-0.087 -0.086,0.05 0,0 l 3.291,-1.9 c 0.087,-0.05 -0.05,-0.087 0,0 l 3.9,6.755 c 0.05,0.087 0.087,-0.05 0,0 l -3.291,1.9 c -0.086,0.05 0.05,0.087 0,0 z"
       stroke="#0000ff"
       stroke-width="0.2"
       id="path771"
       style="fill:none;stroke:#0000ff;stroke-linecap:round;stroke-linejoin:round" />
    <path
       d="m 151.09125,71.62545 -1.95,-3.377 c -0.05,-0.087 -0.086,0.05 0,0 l 3.291,-1.9 c 0.087,-0.05 -0.05,-0.087 0,0 l 3.9,6.754 c 0.05,0.087 0.087,-0.05 0,0 l -3.291,1.9 c -0.086,0.05 0.05,0.087 0,0 z"
       stroke="#0000ff"
       stroke-width="0.2"
       id="path773"
       style="fill:none;stroke:#0000ff;stroke-linecap:round;stroke-linejoin:round" />
    <path
       d="m 159.09125,85.48145 -1.95,-3.377 c -0.05,-0.087 -0.086,0.05 0,0 l 3.291,-1.9 c 0.087,-0.05 -0.05,-0.087 0,0 l 3.9,6.755 c 0.05,0.087 0.087,-0.05 0,0 l -3.291,1.9 c -0.086,0.05 0.05,0.087 0,0 z"
       stroke="#0000ff"
       stroke-width="0.2"
       id="path775"
       style="fill:none;stroke:#0000ff;stroke-linecap:round;stroke-linejoin:round" />
    <path
       d="m 146.38225,34.48145 -1.95,3.378 c -0.05,0.087 0.087,0.05 0,0 l -3.291,-1.9 c -0.086,-0.05 -0.05,0.087 0,0 l 3.9,-6.755 c 0.05,-0.087 -0.086,-0.05 0,0 l 3.291,1.9 c 0.087,0.05 0.05,-0.087 0,0 z"
       stroke="#0000ff"
       stroke-width="0.2"
       id="path777"
       style="fill:none;stroke:#0000ff;stroke-linecap:round;stroke-linejoin:round" />
    <path
       d="m 154.38225,20.62545 -1.95,3.377 c -0.05,0.087 0.087,0.05 0,0 l -3.291,-1.9 c -0.086,-0.05 -0.05,0.087 0,0 l 3.9,-6.754 c 0.05,-0.087 -0.086,-0.05 0,0 l 3.291,1.9 c 0.087,0.05 0.05,-0.087 0,0 z"
       stroke="#0000ff"
       stroke-width="0.2"
       id="path779"
       style="fill:none;stroke:#0000ff;stroke-linecap:round;stroke-linejoin:round" />
    <path
       d="m 162.38225,6.76945 -1.95,3.377 c -0.05,0.087 0.087,0.05 0,0 l -3.291,-1.9 c -0.086,-0.05 -0.05,0.087 0,0 l 3.9,-6.755 c 0.05,-0.087 -0.086,-0.05 0,0 l 3.291,1.9 c 0.087,0.05 0.05,-0.087 0,0 z"
       stroke="#0000ff"
       stroke-width="0.2"
       id="path781"
       style="fill:none;stroke:#0000ff;stroke-linecap:round;stroke-linejoin:round" />
    <path
       id="path2775"
       style="fill:none;fill-opacity:0.717742;stroke:#0000ff;stroke-width:0.1;stroke-linecap:round;stroke-linejoin:round"
       d="m 235.87279,-5.2415405 c 11.08,0 20.48505,17.8396255 20.48505,39.9996245 V 159.04662 c 0,22.15999 -8.9346,39.42795 -19.99981,40.00013 H 134.02417 v -7.87341 H 130.058 v -8.00003 h 3.96617 v -8.00002 H 130.058 v -8.00003 h 3.96617 v -8.00003 H 130.058 v -8.00003 h 3.96617 v -8.00003 H 130.058 v -8.00003 h 3.96617 v -8.00002 H 130.058 v -7.99952 h 3.96617 v -8.00003 H 130.058 v -8.00002 h 3.96617 V 95.173518 H 130.058 v -8.000029 h 3.96617 V 79.173461 H 130.058 v -8.000029 h 3.96617 V 63.173403 H 130.058 v -8.000026 h 3.96617 V 47.173348 H 130.058 v -8.000029 h 3.96617 V 31.17329 H 130.058 v -8.000028 h 3.96617 V 15.173234 H 130.058 V 7.1732054 h 3.96617 V -5.2415405"
       sodipodi:nodetypes="cssscccccccccccccccccccccccccccccccccccccccccccccccccc" />
  </g>
</svg>
