<?xml version="1.0" encoding="UTF-8" standalone="no"?>
<svg
   xmlns:dc="http://purl.org/dc/elements/1.1/"
   xmlns:cc="http://creativecommons.org/ns#"
   xmlns:rdf="http://www.w3.org/1999/02/22-rdf-syntax-ns#"
   xmlns:svg="http://www.w3.org/2000/svg"
   xmlns="http://www.w3.org/2000/svg"
   xmlns:sodipodi="http://sodipodi.sourceforge.net/DTD/sodipodi-0.dtd"
   xmlns:inkscape="http://www.inkscape.org/namespaces/inkscape"
   width="570.8mm"
   height="776.2mm"
   viewBox="0 0 570.8 776.2"
   version="1.1"
   preserveAspectRatio="xMidYMid meet"
   id="svg15"
   sodipodi:docname="Bodenplatte.svg"
   inkscape:version="0.92.3 (2405546, 2018-03-11)">
  <metadata
     id="metadata21">
    <rdf:RDF>
      <cc:Work
         rdf:about="">
        <dc:format>image/svg+xml</dc:format>
        <dc:type
           rdf:resource="http://purl.org/dc/dcmitype/StillImage" />
        <dc:title></dc:title>
      </cc:Work>
    </rdf:RDF>
  </metadata>
  <defs
     id="defs19" />
  <sodipodi:namedview
     pagecolor="#ffffff"
     bordercolor="#666666"
     borderopacity="1"
     objecttolerance="10"
     gridtolerance="10"
     guidetolerance="10"
     inkscape:pageopacity="0"
     inkscape:pageshadow="2"
     inkscape:window-width="1680"
     inkscape:window-height="1001"
     id="namedview17"
     showgrid="false"
     inkscape:zoom="0.45506751"
     inkscape:cx="474.18053"
     inkscape:cy="2200.9109"
     inkscape:window-x="0"
     inkscape:window-y="0"
     inkscape:window-maximized="1"
     inkscape:current-layer="svg15" />
  <g
     id="g4752"
     transform="translate(7.9375004,4.7625002)">
    <path
       d="m 0,0 v 48.325 h 3.3 v 46.7 h 1.65 v -1.25 H 7.6 v 1.25 h 2.65 v 3.25 H 7.6 v 1.25 H 4.95 v -1.25 H 3.3 v 46.7 H 0 v 96.65 h 3.3 v 46.7 h 1.65 v -1.25 H 7.6 v 1.25 h 2.65 v 3.25 H 7.6 v 1.25 H 4.95 v -1.25 H 3.3 v 46.7 H 0 V 386.6 h 32.7 v -3.3 h 31.075 v -1.65 h -1.25 V 379 h 1.25 v -2.65 h 3.25 V 379 h 1.25 v 2.65 h -1.25 v 1.65 H 98.1 v 3.3 h 65.4 v -3.3 h 31.075 v -1.65 h -1.25 V 379 h 1.25 v -2.65 h 3.25 V 379 h 1.25 v 2.65 h -1.25 v 1.65 H 228.9 v 3.3 h 32.7 v -48.325 h -3.3 v -46.7 h -1.65 v 1.25 H 254 v -1.25 h -2.65 v -3.25 H 254 v -1.25 h 2.65 v 1.25 h 1.65 v -46.7 h 3.3 v -96.65 h -3.3 v -46.7 h -1.65 v 1.25 H 254 v -1.25 h -2.65 v -3.25 H 254 v -1.25 h 2.65 v 1.25 h 1.65 v -46.7 h 3.3 V 0 h -32.7 v 3.3 h -31.075 v 1.65 h 1.25 V 7.6 h -1.25 v 2.65 h -3.25 V 7.6 h -1.25 V 4.95 h 1.25 V 3.3 H 163.5 V 0 H 98.1 V 3.3 H 67.025 v 1.65 h 1.25 V 7.6 h -1.25 v 2.65 h -3.25 V 7.6 h -1.25 V 4.95 h 1.25 V 3.3 H 32.7 V 0 Z"
       id="back_outsideCutPath"
       style="font-size:medium;vector-effect:non-scaling-stroke;fill:none;fill-rule:evenodd;stroke:#ff0000;stroke-width:0.1;stroke-linecap:round"
       inkscape:connector-curvature="0" />
    <path
       id="Pad001_f0000"
       d="m 83.425,278.425 v 0 h 132 v 0 z"
       style="fill:#cccccc;fill-opacity:1;fill-rule:evenodd;stroke:#191919;stroke-width:0.34999999;stroke-miterlimit:4;stroke-dasharray:none"
       inkscape:connector-curvature="0" />
    <path
       id="Pad001_f0001"
       d="m 215.425,278.425 v 0 84.99999 0 z"
       style="fill:#cccccc;fill-opacity:1;fill-rule:evenodd;stroke:#191919;stroke-width:0.34999999;stroke-miterlimit:4;stroke-dasharray:none"
       inkscape:connector-curvature="0" />
    <path
       id="Pad001_f0002"
       d="m 215.425,363.42499 v 0 h -132 v 0 z"
       style="fill:#cccccc;fill-opacity:1;fill-rule:evenodd;stroke:#191919;stroke-width:0.34999999;stroke-miterlimit:4;stroke-dasharray:none"
       inkscape:connector-curvature="0" />
    <path
       id="Pad001_f0003"
       d="m 83.425,363.42499 v 0 -84.99999 0 z"
       style="fill:#cccccc;fill-opacity:1;fill-rule:evenodd;stroke:#191919;stroke-width:0.34999999;stroke-miterlimit:4;stroke-dasharray:none"
       inkscape:connector-curvature="0" />
    <circle
       transform="scale(1,-1)"
       cx="200.42502"
       cy="-343.42496"
       r="1.5"
       style="fill:none;stroke:#ff0000;stroke-width:0.34999999;stroke-miterlimit:4;stroke-dasharray:none;stroke-opacity:1"
       id="circle6" />
    <circle
       transform="scale(1,-1)"
       cx="100.42498"
       cy="-343.42496"
       r="1.5"
       style="fill:none;stroke:#ff0000;stroke-width:0.34999999;stroke-miterlimit:4;stroke-dasharray:none;stroke-opacity:1"
       id="circle8" />
    <circle
       transform="scale(1,-1)"
       cx="200.42502"
       cy="-298.42496"
       r="1.5"
       style="fill:none;stroke:#ff0000;stroke-width:0.34999999;stroke-miterlimit:4;stroke-dasharray:none;stroke-opacity:1"
       id="circle10" />
    <circle
       transform="scale(1,-1)"
       cx="100.42498"
       cy="-298.42496"
       r="1.5"
       style="fill:none;stroke:#ff0000;stroke-width:0.34999999;stroke-miterlimit:4;stroke-dasharray:none;stroke-opacity:1"
       id="circle12" />
    <path
       id="Pad_f0000"
       d="m 8.4249999,298.42499 v 0 H 64.425 v 0 z"
       style="fill:#cccccc;fill-opacity:1;fill-rule:evenodd;stroke:#191919;stroke-width:0.34999999;stroke-miterlimit:4;stroke-dasharray:none"
       inkscape:connector-curvature="0" />
    <path
       id="Pad_f0001"
       d="m 64.425,298.42499 v 0 85.00001 0 z"
       style="fill:#cccccc;fill-opacity:1;fill-rule:evenodd;stroke:#191919;stroke-width:0.34999999;stroke-miterlimit:4;stroke-dasharray:none"
       inkscape:connector-curvature="0" />
    <path
       id="Pad_f0002"
       d="m 64.425,383.425 v 0 H 8.4249999 v 0 z"
       style="fill:#cccccc;fill-opacity:1;fill-rule:evenodd;stroke:#191919;stroke-width:0.34999999;stroke-miterlimit:4;stroke-dasharray:none"
       inkscape:connector-curvature="0" />
    <path
       id="Pad_f0003"
       d="m 8.4249999,383.425 v 0 -85.00001 0 z"
       style="fill:#cccccc;fill-opacity:1;fill-rule:evenodd;stroke:#191919;stroke-width:0.34999999;stroke-miterlimit:4;stroke-dasharray:none"
       inkscape:connector-curvature="0" />
    <circle
       transform="scale(1,-1)"
       cx="60.924984"
       cy="-359.92499"
       r="1.375"
       style="fill:none;stroke:#ff0000;stroke-width:0.34999999;stroke-miterlimit:4;stroke-dasharray:none;stroke-opacity:1"
       id="circle25" />
    <circle
       transform="scale(1,-1)"
       cx="11.924985"
       cy="-359.92499"
       r="1.375"
       style="fill:none;stroke:#ff0000;stroke-width:0.34999999;stroke-miterlimit:4;stroke-dasharray:none;stroke-opacity:1"
       id="circle27" />
    <circle
       transform="scale(1,-1)"
       cx="60.924984"
       cy="-301.92499"
       r="1.375"
       style="fill:none;stroke:#ff0000;stroke-width:0.34999999;stroke-miterlimit:4;stroke-dasharray:none;stroke-opacity:1"
       id="circle29" />
    <circle
       transform="scale(1,-1)"
       cx="11.924985"
       cy="-301.92499"
       r="1.375"
       style="fill:none;stroke:#ff0000;stroke-width:0.34999999;stroke-miterlimit:4;stroke-dasharray:none;stroke-opacity:1"
       id="circle31" />
    <path
       id="Pad002_f0000"
       d="m 8.4249999,143.425 v 0 H 223.425 v 0 z"
       style="fill:#cccccc;fill-opacity:1;fill-rule:evenodd;stroke:#191919;stroke-width:0.34999999;stroke-miterlimit:4;stroke-dasharray:none"
       inkscape:connector-curvature="0" />
    <path
       id="Pad002_f0001"
       d="m 223.425,143.425 v 0 115 0 z"
       style="fill:#cccccc;fill-opacity:1;fill-rule:evenodd;stroke:#191919;stroke-width:0.34999999;stroke-miterlimit:4;stroke-dasharray:none"
       inkscape:connector-curvature="0" />
    <path
       id="Pad002_f0002"
       d="m 223.425,258.425 v 0 H 8.4249999 v 0 z"
       style="fill:#cccccc;fill-opacity:1;fill-rule:evenodd;stroke:#191919;stroke-width:0.34999999;stroke-miterlimit:4;stroke-dasharray:none"
       inkscape:connector-curvature="0" />
    <path
       id="Pad002_f0003"
       d="m 8.4249999,258.425 v 0 -115 0 z"
       style="fill:#cccccc;fill-opacity:1;fill-rule:evenodd;stroke:#191919;stroke-width:0.34999999;stroke-miterlimit:4;stroke-dasharray:none"
       inkscape:connector-curvature="0" />
    <circle
       transform="scale(1,-1)"
       cx="40.924984"
       cy="-225.92502"
       r="2"
       style="fill:none;stroke:#ff0000;stroke-width:0.34999999;stroke-miterlimit:4;stroke-dasharray:none;stroke-opacity:1"
       id="circle50" />
    <circle
       transform="scale(1,-1)"
       cx="190.92499"
       cy="-225.92502"
       r="2"
       style="fill:none;stroke:#ff0000;stroke-width:0.34999999;stroke-miterlimit:4;stroke-dasharray:none;stroke-opacity:1"
       id="circle52" />
    <circle
       transform="scale(1,-1)"
       cx="190.92499"
       cy="-175.925"
       r="2"
       style="fill:none;stroke:#ff0000;stroke-width:0.34999999;stroke-miterlimit:4;stroke-dasharray:none;stroke-opacity:1"
       id="circle54" />
    <circle
       transform="scale(1,-1)"
       cx="40.924984"
       cy="-175.925"
       r="2"
       style="fill:none;stroke:#ff0000;stroke-width:0.34999999;stroke-miterlimit:4;stroke-dasharray:none;stroke-opacity:1"
       id="circle56" />
    <path
       id="Pad003_f0000"
       d="m 8.4249999,18.424997 v 0 H 223.425 v 0 z"
       style="fill:#cccccc;fill-opacity:1;fill-rule:evenodd;stroke:#191919;stroke-width:0.34999999;stroke-miterlimit:4;stroke-dasharray:none"
       inkscape:connector-curvature="0" />
    <path
       id="Pad003_f0001"
       d="m 223.425,18.424997 v 0 115.000003 0 z"
       style="fill:#cccccc;fill-opacity:1;fill-rule:evenodd;stroke:#191919;stroke-width:0.34999999;stroke-miterlimit:4;stroke-dasharray:none"
       inkscape:connector-curvature="0" />
    <path
       id="Pad003_f0002"
       d="m 223.425,133.425 v 0 H 8.4249999 v 0 z"
       style="fill:#cccccc;fill-opacity:1;fill-rule:evenodd;stroke:#191919;stroke-width:0.34999999;stroke-miterlimit:4;stroke-dasharray:none"
       inkscape:connector-curvature="0" />
    <path
       id="Pad003_f0003"
       d="m 8.4249999,133.425 v 0 -115.000003 0 z"
       style="fill:#cccccc;fill-opacity:1;fill-rule:evenodd;stroke:#191919;stroke-width:0.34999999;stroke-miterlimit:4;stroke-dasharray:none"
       inkscape:connector-curvature="0" />
    <circle
       transform="scale(1,-1)"
       cx="190.92499"
       cy="-100.925"
       r="2"
       style="fill:none;stroke:#ff0000;stroke-width:0.34999999;stroke-miterlimit:4;stroke-dasharray:none;stroke-opacity:1"
       id="circle71" />
    <circle
       transform="scale(1,-1)"
       cx="190.92499"
       cy="-50.924999"
       r="2"
       style="fill:none;stroke:#ff0000;stroke-width:0.34999999;stroke-miterlimit:4;stroke-dasharray:none;stroke-opacity:1"
       id="circle73" />
    <circle
       transform="scale(1,-1)"
       cx="40.924984"
       cy="-50.924999"
       r="2"
       style="fill:none;stroke:#ff0000;stroke-width:0.34999999;stroke-miterlimit:4;stroke-dasharray:none;stroke-opacity:1"
       id="circle75" />
    <circle
       transform="scale(1,-1)"
       cx="40.924984"
       cy="-100.925"
       r="2"
       style="fill:none;stroke:#ff0000;stroke-width:0.34999999;stroke-miterlimit:4;stroke-dasharray:none;stroke-opacity:1"
       id="circle79" />
  </g>
</svg>
