<?xml version="1.0" encoding="UTF-8" standalone="no"?>
<svg
   xmlns:dc="http://purl.org/dc/elements/1.1/"
   xmlns:cc="http://creativecommons.org/ns#"
   xmlns:rdf="http://www.w3.org/1999/02/22-rdf-syntax-ns#"
   xmlns:svg="http://www.w3.org/2000/svg"
   xmlns="http://www.w3.org/2000/svg"
   xmlns:sodipodi="http://sodipodi.sourceforge.net/DTD/sodipodi-0.dtd"
   xmlns:inkscape="http://www.inkscape.org/namespaces/inkscape"
   width="570.8mm"
   height="776.2mm"
   viewBox="0 0 570.8 776.2"
   version="1.1"
   preserveAspectRatio="xMidYMid meet"
   id="svg15"
   sodipodi:docname="Frontplatte.svg"
   inkscape:version="0.92.3 (2405546, 2018-03-11)">
  <metadata
     id="metadata21">
    <rdf:RDF>
      <cc:Work
         rdf:about="">
        <dc:format>image/svg+xml</dc:format>
        <dc:type
           rdf:resource="http://purl.org/dc/dcmitype/StillImage" />
        <dc:title></dc:title>
      </cc:Work>
    </rdf:RDF>
  </metadata>
  <defs
     id="defs19" />
  <sodipodi:namedview
     pagecolor="#ffffff"
     bordercolor="#666666"
     borderopacity="1"
     objecttolerance="10"
     gridtolerance="10"
     guidetolerance="10"
     inkscape:pageopacity="0"
     inkscape:pageshadow="2"
     inkscape:window-width="1366"
     inkscape:window-height="719"
     id="namedview17"
     showgrid="false"
     inkscape:zoom="0.32178132"
     inkscape:cx="231.38118"
     inkscape:cy="1907.0346"
     inkscape:window-x="0"
     inkscape:window-y="0"
     inkscape:window-maximized="1"
     inkscape:current-layer="svg15" />
  <g
     id="g955">
    <path
       d="M 6.9769867,8.1913918 V 56.516392 h 3.3000003 v 46.699998 h 1.65 v -1.25 h 2.65 v 1.25 h 2.65 v 3.25 h -2.65 v 1.25 h -2.65 v -1.25 h -1.65 v 46.7 H 6.9769867 v 96.65 h 3.3000003 v 46.7 h 1.65 v -1.25 h 2.65 v 1.25 h 2.65 v 3.25 h -2.65 v 1.25 h -2.65 v -1.25 h -1.65 v 46.7 H 6.9769867 v 48.325 H 39.676987 v -3.3 h 31.075 v -1.65 h -1.25 v -2.65 h 1.25 v -2.65 h 3.25 v 2.65 h 1.25 v 2.65 h -1.25 v 1.65 h 31.075003 v 3.3 h 65.4 v -3.3 h 31.075 v -1.65 h -1.25 v -2.65 h 1.25 v -2.65 h 3.25 v 2.65 h 1.25 v 2.65 h -1.25 v 1.65 h 31.075 v 3.3 h 32.7 v -48.325 h -3.3 v -46.7 h -1.65 v 1.25 h -2.65 v -1.25 h -2.65 v -3.25 h 2.65 v -1.25 h 2.65 v 1.25 h 1.65 v -46.7 h 3.3 v -96.65 h -3.3 v -46.7 h -1.65 v 1.25 h -2.65 v -1.25 h -2.65 v -3.25 h 2.65 v -1.25 h 2.65 v 1.25 h 1.65 V 56.516392 h 3.3 V 8.1913918 h -32.7 v 3.3000002 h -31.075 v 1.65 h 1.25 v 2.65 h -1.25 v 2.65 h -3.25 v -2.65 h -1.25 v -2.65 h 1.25 v -1.65 h -31.075 V 8.1913918 h -65.4 V 11.491392 H 74.001987 v 1.65 h 1.25 v 2.65 h -1.25 v 2.65 h -3.25 v -2.65 h -1.25 v -2.65 h 1.25 v -1.65 h -31.075 V 8.1913918 Z"
       id="front_outsideCutPath"
       style="font-size:medium;vector-effect:non-scaling-stroke;fill:none;fill-rule:evenodd;stroke:#ff0000;stroke-width:1.32291666;stroke-linecap:round;stroke-miterlimit:4;stroke-dasharray:none"
       inkscape:connector-curvature="0" />
    <circle
       id="circle2"
       style="fill:none;stroke:#000000;stroke-width:0.52916664;stroke-miterlimit:4;stroke-dasharray:none"
       r="25.5"
       cy="-229.79893"
       cx="62.718559"
       transform="scale(1,-1)" />
    <path
       inkscape:connector-curvature="0"
       style="fill:none;fill-rule:evenodd;stroke:#000000;stroke-width:0.52916664;stroke-miterlimit:4;stroke-dasharray:none"
       d="m 168.26856,161.49894 h 28 v 93 h -28 v -93"
       id="Sketch003_w0001" />
    <circle
       id="circle8"
       style="fill:none;stroke:#000000;stroke-width:0.52916664;stroke-miterlimit:4;stroke-dasharray:none"
       r="25.5"
       cy="-104.79893"
       cx="62.718559"
       transform="scale(1,-1)" />
    <path
       inkscape:connector-curvature="0"
       style="fill:none;fill-rule:evenodd;stroke:#000000;stroke-width:0.52916664;stroke-miterlimit:4;stroke-dasharray:none"
       d="m 168.26856,36.498935 h 28 v 93.000005 h -28 V 36.498935"
       id="Sketch005_w0001" />
  </g>
</svg>
