<?xml version="1.0" encoding="UTF-8" standalone="no"?>
<svg
   xmlns:dc="http://purl.org/dc/elements/1.1/"
   xmlns:cc="http://creativecommons.org/ns#"
   xmlns:rdf="http://www.w3.org/1999/02/22-rdf-syntax-ns#"
   xmlns:svg="http://www.w3.org/2000/svg"
   xmlns="http://www.w3.org/2000/svg"
   xmlns:sodipodi="http://sodipodi.sourceforge.net/DTD/sodipodi-0.dtd"
   xmlns:inkscape="http://www.inkscape.org/namespaces/inkscape"
   width="570.8mm"
   height="776.2mm"
   viewBox="0 0 570.8 776.2"
   version="1.1"
   preserveAspectRatio="xMidYMid meet"
   id="svg828"
   sodipodi:docname="ObenKante.svg"
   inkscape:version="0.92.3 (2405546, 2018-03-11)">
  <metadata
     id="metadata834">
    <rdf:RDF>
      <cc:Work
         rdf:about="">
        <dc:format>image/svg+xml</dc:format>
        <dc:type
           rdf:resource="http://purl.org/dc/dcmitype/StillImage" />
        <dc:title></dc:title>
      </cc:Work>
    </rdf:RDF>
  </metadata>
  <defs
     id="defs832" />
  <sodipodi:namedview
     pagecolor="#ffffff"
     bordercolor="#666666"
     borderopacity="1"
     objecttolerance="10"
     gridtolerance="10"
     guidetolerance="10"
     inkscape:pageopacity="0"
     inkscape:pageshadow="2"
     inkscape:window-width="1366"
     inkscape:window-height="719"
     id="namedview830"
     showgrid="false"
     inkscape:zoom="0.18406982"
     inkscape:cx="1078.6771"
     inkscape:cy="1466.8347"
     inkscape:window-x="0"
     inkscape:window-y="0"
     inkscape:window-maximized="1"
     inkscape:current-layer="svg828" />
  <path
     inkscape:connector-curvature="0"
     style="font-size:medium;vector-effect:non-scaling-stroke;fill:none;fill-rule:evenodd;stroke:#ff0000;stroke-width:0.1;stroke-linecap:round"
     id="top_outsideCutPath"
     d="m 9.2070338,9.1344367 v 1.9000003 h -3.3 v 3.575 h 3.25 v 1.625 1.625 h -3.25 v 3.575 h 3.3 v 10.4 h -3.3 v 3.575 h 3.25 v 1.625 1.625 h -3.25 v 3.575 h 3.3 v 1.9 H 38.607034 v 3.3 h 31.075 v -3.25 h 1.625 1.625 v 3.25 h 31.074996 v -3.3 h 65.4 v 3.3 h 31.075 v -3.25 h 1.625 1.625 v 3.25 h 31.075 v -3.3 h 29.4 v -1.9 h 3.3 v -3.575 h -3.25 v -1.625 -1.625 h 3.25 v -3.575 h -3.3 v -10.4 h 3.3 v -3.575 h -3.25 v -1.625 -1.625 h 3.25 v -3.575 h -3.3 V 9.1344367 h -29.4 v -3.3 h -31.075 v 3.25 h -1.625 -1.625 v -3.25 h -31.075 v 3.3 h -65.4 v -3.3 H 72.932034 v 3.25 h -1.625 -1.625 v -3.25 h -31.075 v 3.3 z" />
</svg>
