<?xml version="1.0" encoding="UTF-8" standalone="no"?>
<svg
   xmlns:dc="http://purl.org/dc/elements/1.1/"
   xmlns:cc="http://creativecommons.org/ns#"
   xmlns:rdf="http://www.w3.org/1999/02/22-rdf-syntax-ns#"
   xmlns:svg="http://www.w3.org/2000/svg"
   xmlns="http://www.w3.org/2000/svg"
   xmlns:xlink="http://www.w3.org/1999/xlink"
   xmlns:sodipodi="http://sodipodi.sourceforge.net/DTD/sodipodi-0.dtd"
   xmlns:inkscape="http://www.inkscape.org/namespaces/inkscape"
   width="570.8mm"
   height="776.2mm"
   viewBox="0 0 570.8 776.2"
   version="1.1"
   preserveAspectRatio="xMidYMid meet"
   id="svg906"
   sodipodi:docname="SeitenteilLinksRechts.svg"
   inkscape:version="0.92.3 (2405546, 2018-03-11)">
  <metadata
     id="metadata912">
    <rdf:RDF>
      <cc:Work
         rdf:about="">
        <dc:format>image/svg+xml</dc:format>
        <dc:type
           rdf:resource="http://purl.org/dc/dcmitype/StillImage" />
        <dc:title></dc:title>
      </cc:Work>
    </rdf:RDF>
  </metadata>
  <defs
     id="defs910" />
  <sodipodi:namedview
     pagecolor="#ffffff"
     bordercolor="#666666"
     borderopacity="1"
     objecttolerance="10"
     gridtolerance="10"
     guidetolerance="10"
     inkscape:pageopacity="0"
     inkscape:pageshadow="2"
     inkscape:window-width="1366"
     inkscape:window-height="719"
     id="namedview908"
     showgrid="false"
     inkscape:zoom="1.0412562"
     inkscape:cx="-60.65768"
     inkscape:cy="1615.3923"
     inkscape:window-x="0"
     inkscape:window-y="0"
     inkscape:window-maximized="1"
     inkscape:current-layer="svg906" />
  <path
     inkscape:connector-curvature="0"
     style="font-size:medium;vector-effect:non-scaling-stroke;fill:none;fill-rule:evenodd;stroke:#ff0000;stroke-width:0.1;stroke-linecap:round"
     id="right_outsideCutPath"
     d="m 13.799866,12.196806 v 48.325 h -3.3 v 46.700004 h 3.25 v 1.625 1.625 h -3.25 v 46.7 h 3.3 v 96.65 h -3.3 v 46.7 h 3.25 v 1.625 1.625 h -3.25 v 46.7 h 3.3 v 48.325 h 1.9 v -3.3 h 3.575 v -1.65 h -1.25 v -2.65 h 1.25 v -2.65 h 3.25 v 2.65 h 1.25 v 2.65 h -1.25 v 1.65 h 3.575 v 3.3 h 10.4 v -3.3 h 3.575 v -1.65 h -1.25 v -2.65 h 1.25 v -2.65 h 3.25 v 2.65 h 1.25 v 2.65 h -1.25 v 1.65 h 3.575 v 3.3 h 1.9 v -48.325 h 3.3 v -46.7 h -3.25 v -1.625 -1.625 h 3.25 v -46.7 h -3.3 v -96.65 h 3.3 v -46.7 h -3.25 v -1.625 -1.625 h 3.25 V 60.521806 h -3.3 v -48.325 h -1.9 v 3.3 h -3.575 v 1.65 h 1.25 v 2.65 h -1.25 v 2.65 h -3.25 v -2.65 h -1.25 v -2.65 h 1.25 v -1.65 h -3.575 v -3.3 h -10.4 v 3.3 h -3.575 v 1.65 h 1.25 v 2.65 h -1.25 v 2.65 h -3.25 v -2.65 h -1.25 v -2.65 h 1.25 v -1.65 h -3.575 v -3.3 z" />
  <g
     id="g2786"
     transform="translate(2.397473e-8,-1.0583333)">
    <rect
       transform="rotate(-90)"
       inkscape:tile-y0="744.31248"
       inkscape:tile-x0="75.558655"
       inkscape:tile-h="5.5291669"
       inkscape:tile-w="5.5291669"
       inkscape:tile-cy="747.07706"
       inkscape:tile-cx="78.323238"
       y="19.055916"
       x="-385.69379"
       height="5"
       width="5"
       id="rect928"
       style="fill:none;stroke:#ff0000;stroke-width:0.52916664;stroke-miterlimit:4;stroke-dasharray:none;stroke-opacity:1" />
    <use
       id="use1330"
       xlink:href="#rect928"
       inkscape:tiled-clone-of="#rect928"
       y="0"
       x="0"
       width="100%"
       height="100%" />
    <use
       id="use1332"
       transform="translate(6.635)"
       xlink:href="#rect928"
       inkscape:tiled-clone-of="#rect928"
       y="0"
       x="0"
       width="100%"
       height="100%" />
    <use
       id="use1334"
       transform="translate(13.27)"
       xlink:href="#rect928"
       inkscape:tiled-clone-of="#rect928"
       y="0"
       x="0"
       width="100%"
       height="100%" />
    <use
       id="use1336"
       transform="translate(19.905)"
       xlink:href="#rect928"
       inkscape:tiled-clone-of="#rect928"
       y="0"
       x="0"
       width="100%"
       height="100%" />
    <use
       id="use1340"
       transform="translate(0,-6.635)"
       xlink:href="#rect928"
       inkscape:tiled-clone-of="#rect928"
       y="0"
       x="0"
       width="100%"
       height="100%" />
    <use
       id="use1342"
       transform="translate(6.635,-6.635)"
       xlink:href="#rect928"
       inkscape:tiled-clone-of="#rect928"
       y="0"
       x="0"
       width="100%"
       height="100%" />
    <use
       id="use1344"
       transform="translate(13.27,-6.635)"
       xlink:href="#rect928"
       inkscape:tiled-clone-of="#rect928"
       y="0"
       x="0"
       width="100%"
       height="100%" />
    <use
       id="use1346"
       transform="translate(19.905,-6.635)"
       xlink:href="#rect928"
       inkscape:tiled-clone-of="#rect928"
       y="0"
       x="0"
       width="100%"
       height="100%" />
    <use
       id="use1350"
       transform="translate(0,-13.27)"
       xlink:href="#rect928"
       inkscape:tiled-clone-of="#rect928"
       y="0"
       x="0"
       width="100%"
       height="100%" />
    <use
       id="use1352"
       transform="translate(6.635,-13.27)"
       xlink:href="#rect928"
       inkscape:tiled-clone-of="#rect928"
       y="0"
       x="0"
       width="100%"
       height="100%" />
    <use
       id="use1354"
       transform="translate(13.27,-13.27)"
       xlink:href="#rect928"
       inkscape:tiled-clone-of="#rect928"
       y="0"
       x="0"
       width="100%"
       height="100%" />
    <use
       id="use1356"
       transform="translate(19.905,-13.27)"
       xlink:href="#rect928"
       inkscape:tiled-clone-of="#rect928"
       y="0"
       x="0"
       width="100%"
       height="100%" />
    <use
       id="use1360"
       transform="translate(0,-19.905)"
       xlink:href="#rect928"
       inkscape:tiled-clone-of="#rect928"
       y="0"
       x="0"
       width="100%"
       height="100%" />
    <use
       id="use1362"
       transform="translate(6.635,-19.905)"
       xlink:href="#rect928"
       inkscape:tiled-clone-of="#rect928"
       y="0"
       x="0"
       width="100%"
       height="100%" />
    <use
       id="use1364"
       transform="translate(13.27,-19.905)"
       xlink:href="#rect928"
       inkscape:tiled-clone-of="#rect928"
       y="0"
       x="0"
       width="100%"
       height="100%" />
    <use
       id="use1366"
       transform="translate(19.905,-19.905)"
       xlink:href="#rect928"
       inkscape:tiled-clone-of="#rect928"
       y="0"
       x="0"
       width="100%"
       height="100%" />
    <use
       id="use1370"
       transform="translate(0,-26.54)"
       xlink:href="#rect928"
       inkscape:tiled-clone-of="#rect928"
       y="0"
       x="0"
       width="100%"
       height="100%" />
    <use
       id="use1372"
       transform="translate(6.635,-26.54)"
       xlink:href="#rect928"
       inkscape:tiled-clone-of="#rect928"
       y="0"
       x="0"
       width="100%"
       height="100%" />
    <use
       id="use1374"
       transform="translate(13.27,-26.54)"
       xlink:href="#rect928"
       inkscape:tiled-clone-of="#rect928"
       y="0"
       x="0"
       width="100%"
       height="100%" />
    <use
       id="use1376"
       transform="translate(19.905,-26.54)"
       xlink:href="#rect928"
       inkscape:tiled-clone-of="#rect928"
       y="0"
       x="0"
       width="100%"
       height="100%" />
    <use
       id="use1380"
       transform="translate(0,-33.175)"
       xlink:href="#rect928"
       inkscape:tiled-clone-of="#rect928"
       y="0"
       x="0"
       width="100%"
       height="100%" />
    <use
       id="use1382"
       transform="translate(6.635,-33.175)"
       xlink:href="#rect928"
       inkscape:tiled-clone-of="#rect928"
       y="0"
       x="0"
       width="100%"
       height="100%" />
    <use
       id="use1384"
       transform="translate(13.27,-33.175)"
       xlink:href="#rect928"
       inkscape:tiled-clone-of="#rect928"
       y="0"
       x="0"
       width="100%"
       height="100%" />
    <use
       id="use1386"
       transform="translate(19.905,-33.175)"
       xlink:href="#rect928"
       inkscape:tiled-clone-of="#rect928"
       y="0"
       x="0"
       width="100%"
       height="100%" />
    <use
       id="use1390"
       transform="translate(0,-39.81)"
       xlink:href="#rect928"
       inkscape:tiled-clone-of="#rect928"
       y="0"
       x="0"
       width="100%"
       height="100%" />
    <use
       id="use1392"
       transform="translate(6.635,-39.81)"
       xlink:href="#rect928"
       inkscape:tiled-clone-of="#rect928"
       y="0"
       x="0"
       width="100%"
       height="100%" />
    <use
       id="use1394"
       transform="translate(13.27,-39.81)"
       xlink:href="#rect928"
       inkscape:tiled-clone-of="#rect928"
       y="0"
       x="0"
       width="100%"
       height="100%" />
    <use
       id="use1396"
       transform="translate(19.905,-39.81)"
       xlink:href="#rect928"
       inkscape:tiled-clone-of="#rect928"
       y="0"
       x="0"
       width="100%"
       height="100%" />
    <use
       id="use1400"
       transform="translate(0,-46.445)"
       xlink:href="#rect928"
       inkscape:tiled-clone-of="#rect928"
       y="0"
       x="0"
       width="100%"
       height="100%" />
    <use
       id="use1402"
       transform="translate(6.635,-46.445)"
       xlink:href="#rect928"
       inkscape:tiled-clone-of="#rect928"
       y="0"
       x="0"
       width="100%"
       height="100%" />
    <use
       id="use1404"
       transform="translate(13.27,-46.445)"
       xlink:href="#rect928"
       inkscape:tiled-clone-of="#rect928"
       y="0"
       x="0"
       width="100%"
       height="100%" />
    <use
       id="use1406"
       transform="translate(19.905,-46.445)"
       xlink:href="#rect928"
       inkscape:tiled-clone-of="#rect928"
       y="0"
       x="0"
       width="100%"
       height="100%" />
    <use
       id="use1410"
       transform="translate(0,-53.08)"
       xlink:href="#rect928"
       inkscape:tiled-clone-of="#rect928"
       y="0"
       x="0"
       width="100%"
       height="100%" />
    <use
       id="use1412"
       transform="translate(6.635,-53.08)"
       xlink:href="#rect928"
       inkscape:tiled-clone-of="#rect928"
       y="0"
       x="0"
       width="100%"
       height="100%" />
    <use
       id="use1414"
       transform="translate(13.27,-53.08)"
       xlink:href="#rect928"
       inkscape:tiled-clone-of="#rect928"
       y="0"
       x="0"
       width="100%"
       height="100%" />
    <use
       id="use1416"
       transform="translate(19.905,-53.08)"
       xlink:href="#rect928"
       inkscape:tiled-clone-of="#rect928"
       y="0"
       x="0"
       width="100%"
       height="100%" />
    <use
       id="use1420"
       transform="translate(0,-59.715)"
       xlink:href="#rect928"
       inkscape:tiled-clone-of="#rect928"
       y="0"
       x="0"
       width="100%"
       height="100%" />
    <use
       id="use1422"
       transform="translate(6.635,-59.715)"
       xlink:href="#rect928"
       inkscape:tiled-clone-of="#rect928"
       y="0"
       x="0"
       width="100%"
       height="100%" />
    <use
       id="use1424"
       transform="translate(13.27,-59.715)"
       xlink:href="#rect928"
       inkscape:tiled-clone-of="#rect928"
       y="0"
       x="0"
       width="100%"
       height="100%" />
    <use
       id="use1426"
       transform="translate(19.905,-59.715)"
       xlink:href="#rect928"
       inkscape:tiled-clone-of="#rect928"
       y="0"
       x="0"
       width="100%"
       height="100%" />
    <use
       id="use1430"
       transform="translate(-9.9999988e-7,-66.350001)"
       xlink:href="#rect928"
       inkscape:tiled-clone-of="#rect928"
       y="0"
       x="0"
       width="100%"
       height="100%" />
    <use
       id="use1432"
       transform="translate(6.635,-66.35)"
       xlink:href="#rect928"
       inkscape:tiled-clone-of="#rect928"
       y="0"
       x="0"
       width="100%"
       height="100%" />
    <use
       id="use1434"
       transform="translate(13.27,-66.35)"
       xlink:href="#rect928"
       inkscape:tiled-clone-of="#rect928"
       y="0"
       x="0"
       width="100%"
       height="100%" />
    <use
       id="use1436"
       transform="translate(19.905,-66.35)"
       xlink:href="#rect928"
       inkscape:tiled-clone-of="#rect928"
       y="0"
       x="0"
       width="100%"
       height="100%" />
    <use
       id="use1440"
       transform="translate(-1.9999999e-6,-72.985002)"
       xlink:href="#rect928"
       inkscape:tiled-clone-of="#rect928"
       y="0"
       x="0"
       width="100%"
       height="100%" />
    <use
       id="use1442"
       transform="translate(6.634999,-72.985001)"
       xlink:href="#rect928"
       inkscape:tiled-clone-of="#rect928"
       y="0"
       x="0"
       width="100%"
       height="100%" />
    <use
       id="use1444"
       transform="translate(13.27,-72.985)"
       xlink:href="#rect928"
       inkscape:tiled-clone-of="#rect928"
       y="0"
       x="0"
       width="100%"
       height="100%" />
    <use
       id="use1446"
       transform="translate(19.905,-72.985)"
       xlink:href="#rect928"
       inkscape:tiled-clone-of="#rect928"
       y="0"
       x="0"
       width="100%"
       height="100%" />
    <use
       id="use1450"
       transform="translate(-1.9999999e-6,-79.620002)"
       xlink:href="#rect928"
       inkscape:tiled-clone-of="#rect928"
       y="0"
       x="0"
       width="100%"
       height="100%" />
    <use
       id="use1452"
       transform="translate(6.634999,-79.620001)"
       xlink:href="#rect928"
       inkscape:tiled-clone-of="#rect928"
       y="0"
       x="0"
       width="100%"
       height="100%" />
    <use
       id="use1454"
       transform="translate(13.269999,-79.620001)"
       xlink:href="#rect928"
       inkscape:tiled-clone-of="#rect928"
       y="0"
       x="0"
       width="100%"
       height="100%" />
    <use
       id="use1456"
       transform="translate(19.905,-79.62)"
       xlink:href="#rect928"
       inkscape:tiled-clone-of="#rect928"
       y="0"
       x="0"
       width="100%"
       height="100%" />
    <use
       id="use1460"
       transform="translate(-1.9999999e-6,-86.255002)"
       xlink:href="#rect928"
       inkscape:tiled-clone-of="#rect928"
       y="0"
       x="0"
       width="100%"
       height="100%" />
    <use
       id="use1462"
       transform="translate(6.634999,-86.255001)"
       xlink:href="#rect928"
       inkscape:tiled-clone-of="#rect928"
       y="0"
       x="0"
       width="100%"
       height="100%" />
    <use
       id="use1464"
       transform="translate(13.269999,-86.255001)"
       xlink:href="#rect928"
       inkscape:tiled-clone-of="#rect928"
       y="0"
       x="0"
       width="100%"
       height="100%" />
    <use
       id="use1466"
       transform="translate(19.904999,-86.255001)"
       xlink:href="#rect928"
       inkscape:tiled-clone-of="#rect928"
       y="0"
       x="0"
       width="100%"
       height="100%" />
    <use
       id="use1470"
       transform="translate(-2e-6,-92.890002)"
       xlink:href="#rect928"
       inkscape:tiled-clone-of="#rect928"
       y="0"
       x="0"
       width="100%"
       height="100%" />
    <use
       id="use1472"
       transform="translate(6.634998,-92.890002)"
       xlink:href="#rect928"
       inkscape:tiled-clone-of="#rect928"
       y="0"
       x="0"
       width="100%"
       height="100%" />
    <use
       id="use1474"
       transform="translate(13.269998,-92.890002)"
       xlink:href="#rect928"
       inkscape:tiled-clone-of="#rect928"
       y="0"
       x="0"
       width="100%"
       height="100%" />
    <use
       id="use1476"
       transform="translate(19.904998,-92.890002)"
       xlink:href="#rect928"
       inkscape:tiled-clone-of="#rect928"
       y="0"
       x="0"
       width="100%"
       height="100%" />
    <use
       id="use1480"
       transform="translate(-2e-6,-99.525002)"
       xlink:href="#rect928"
       inkscape:tiled-clone-of="#rect928"
       y="0"
       x="0"
       width="100%"
       height="100%" />
    <use
       id="use1482"
       transform="translate(6.634998,-99.525002)"
       xlink:href="#rect928"
       inkscape:tiled-clone-of="#rect928"
       y="0"
       x="0"
       width="100%"
       height="100%" />
    <use
       id="use1484"
       transform="translate(13.269998,-99.525002)"
       xlink:href="#rect928"
       inkscape:tiled-clone-of="#rect928"
       y="0"
       x="0"
       width="100%"
       height="100%" />
    <use
       id="use1486"
       transform="translate(19.904998,-99.525002)"
       xlink:href="#rect928"
       inkscape:tiled-clone-of="#rect928"
       y="0"
       x="0"
       width="100%"
       height="100%" />
    <use
       id="use1490"
       transform="translate(0,-106.16)"
       xlink:href="#rect928"
       inkscape:tiled-clone-of="#rect928"
       y="0"
       x="0"
       width="100%"
       height="100%" />
    <use
       id="use1492"
       transform="translate(6.635,-106.16)"
       xlink:href="#rect928"
       inkscape:tiled-clone-of="#rect928"
       y="0"
       x="0"
       width="100%"
       height="100%" />
    <use
       id="use1494"
       transform="translate(13.27,-106.16)"
       xlink:href="#rect928"
       inkscape:tiled-clone-of="#rect928"
       y="0"
       x="0"
       width="100%"
       height="100%" />
    <use
       id="use1496"
       transform="translate(19.905,-106.16)"
       xlink:href="#rect928"
       inkscape:tiled-clone-of="#rect928"
       y="0"
       x="0"
       width="100%"
       height="100%" />
  </g>
</svg>
