<?xml version="1.0" encoding="UTF-8" standalone="no"?>
<svg
   xmlns:dc="http://purl.org/dc/elements/1.1/"
   xmlns:cc="http://creativecommons.org/ns#"
   xmlns:rdf="http://www.w3.org/1999/02/22-rdf-syntax-ns#"
   xmlns:svg="http://www.w3.org/2000/svg"
   xmlns="http://www.w3.org/2000/svg"
   xmlns:xlink="http://www.w3.org/1999/xlink"
   xmlns:sodipodi="http://sodipodi.sourceforge.net/DTD/sodipodi-0.dtd"
   xmlns:inkscape="http://www.inkscape.org/namespaces/inkscape"
   width="570.8mm"
   height="776.2mm"
   viewBox="0 0 570.8 776.2"
   version="1.1"
   preserveAspectRatio="xMidYMid meet"
   id="svg906"
   sodipodi:docname="UntenKante.svg"
   inkscape:version="0.92.3 (2405546, 2018-03-11)">
  <metadata
     id="metadata912">
    <rdf:RDF>
      <cc:Work
         rdf:about="">
        <dc:format>image/svg+xml</dc:format>
        <dc:type
           rdf:resource="http://purl.org/dc/dcmitype/StillImage" />
        <dc:title></dc:title>
      </cc:Work>
    </rdf:RDF>
  </metadata>
  <defs
     id="defs910" />
  <sodipodi:namedview
     pagecolor="#ffffff"
     bordercolor="#666666"
     borderopacity="1"
     objecttolerance="10"
     gridtolerance="10"
     guidetolerance="10"
     inkscape:pageopacity="0"
     inkscape:pageshadow="2"
     inkscape:window-width="1366"
     inkscape:window-height="719"
     id="namedview908"
     showgrid="false"
     inkscape:zoom="0.7362793"
     inkscape:cx="523.96123"
     inkscape:cy="310.39557"
     inkscape:window-x="0"
     inkscape:window-y="0"
     inkscape:window-maximized="1"
     inkscape:current-layer="svg906" />
  <path
     inkscape:connector-curvature="0"
     style="font-size:medium;vector-effect:non-scaling-stroke;fill:none;fill-rule:evenodd;stroke:#ff0000;stroke-width:0.1;stroke-linecap:round"
     id="bottom_outsideCutPath"
     d="m 3.35,737.85001 v 1.9 h -3.3 v 3.575 H 3.3 v 1.625 1.625 H 0.05 v 3.575 h 3.3 v 10.4 h -3.3 v 3.575 H 3.3 v 1.625 1.625 H 0.05 v 3.575 h 3.3 v 1.9 h 29.4 v 3.3 h 31.075 v -3.25 h 1.625 1.625 v 3.25 H 98.15 v -3.3 h 65.4 v 3.3 h 31.075 v -3.25 h 1.625 1.625 v 3.25 h 31.075 v -3.3 h 29.4 v -1.9 h 3.3 v -3.575 h -3.25 v -1.625 -1.625 h 3.25 v -3.575 h -3.3 v -10.4 h 3.3 v -3.575 h -3.25 v -1.625 -1.625 h 3.25 v -3.575 h -3.3 v -1.9 h -29.4 v -3.3 h -31.075 v 3.25 h -1.625 -1.625 v -3.25 H 163.55 v 3.3 h -65.4 v -3.3 H 67.075 v 3.25 H 65.45 63.825 v -3.25 H 32.75 v 3.3 z" />
  <rect
     style="fill:none;stroke:#ff0000;stroke-width:0.42530358;stroke-miterlimit:4;stroke-dasharray:none;stroke-opacity:1"
     id="rect926"
     width="55.574699"
     height="17.574696"
     x="8.5126514"
     y="752.11267" />
  <g
     id="g1681"
     transform="translate(5.8208334,-2.0268287)">
    <rect
       inkscape:tile-y0="744.31248"
       inkscape:tile-x0="75.558655"
       inkscape:tile-h="5.5291669"
       inkscape:tile-w="5.5291669"
       inkscape:tile-cy="747.07706"
       inkscape:tile-cx="78.323238"
       y="744.57703"
       x="75.823235"
       height="5"
       width="5"
       id="rect928"
       style="fill:none;stroke:#ff0000;stroke-width:0.52916664;stroke-miterlimit:4;stroke-dasharray:none;stroke-opacity:1" />
    <use
       id="use1330"
       xlink:href="#rect928"
       inkscape:tiled-clone-of="#rect928"
       y="0"
       x="0"
       width="100%"
       height="100%" />
    <use
       id="use1332"
       transform="translate(0,6.6350003)"
       xlink:href="#rect928"
       inkscape:tiled-clone-of="#rect928"
       y="0"
       x="0"
       width="100%"
       height="100%" />
    <use
       id="use1334"
       transform="translate(0,13.270001)"
       xlink:href="#rect928"
       inkscape:tiled-clone-of="#rect928"
       y="0"
       x="0"
       width="100%"
       height="100%" />
    <use
       id="use1336"
       transform="translate(0,19.905001)"
       xlink:href="#rect928"
       inkscape:tiled-clone-of="#rect928"
       y="0"
       x="0"
       width="100%"
       height="100%" />
    <use
       id="use1340"
       transform="translate(6.6350003)"
       xlink:href="#rect928"
       inkscape:tiled-clone-of="#rect928"
       y="0"
       x="0"
       width="100%"
       height="100%" />
    <use
       id="use1342"
       transform="translate(6.6350003,6.6350003)"
       xlink:href="#rect928"
       inkscape:tiled-clone-of="#rect928"
       y="0"
       x="0"
       width="100%"
       height="100%" />
    <use
       id="use1344"
       transform="translate(6.6350003,13.270001)"
       xlink:href="#rect928"
       inkscape:tiled-clone-of="#rect928"
       y="0"
       x="0"
       width="100%"
       height="100%" />
    <use
       id="use1346"
       transform="translate(6.6350003,19.905001)"
       xlink:href="#rect928"
       inkscape:tiled-clone-of="#rect928"
       y="0"
       x="0"
       width="100%"
       height="100%" />
    <use
       id="use1350"
       transform="translate(13.270001)"
       xlink:href="#rect928"
       inkscape:tiled-clone-of="#rect928"
       y="0"
       x="0"
       width="100%"
       height="100%" />
    <use
       id="use1352"
       transform="translate(13.270001,6.6350003)"
       xlink:href="#rect928"
       inkscape:tiled-clone-of="#rect928"
       y="0"
       x="0"
       width="100%"
       height="100%" />
    <use
       id="use1354"
       transform="translate(13.270001,13.270001)"
       xlink:href="#rect928"
       inkscape:tiled-clone-of="#rect928"
       y="0"
       x="0"
       width="100%"
       height="100%" />
    <use
       id="use1356"
       transform="translate(13.270001,19.905001)"
       xlink:href="#rect928"
       inkscape:tiled-clone-of="#rect928"
       y="0"
       x="0"
       width="100%"
       height="100%" />
    <use
       id="use1360"
       transform="translate(19.905001)"
       xlink:href="#rect928"
       inkscape:tiled-clone-of="#rect928"
       y="0"
       x="0"
       width="100%"
       height="100%" />
    <use
       id="use1362"
       transform="translate(19.905001,6.6350003)"
       xlink:href="#rect928"
       inkscape:tiled-clone-of="#rect928"
       y="0"
       x="0"
       width="100%"
       height="100%" />
    <use
       id="use1364"
       transform="translate(19.905001,13.270001)"
       xlink:href="#rect928"
       inkscape:tiled-clone-of="#rect928"
       y="0"
       x="0"
       width="100%"
       height="100%" />
    <use
       id="use1366"
       transform="translate(19.905001,19.905001)"
       xlink:href="#rect928"
       inkscape:tiled-clone-of="#rect928"
       y="0"
       x="0"
       width="100%"
       height="100%" />
    <use
       id="use1370"
       transform="translate(26.540001)"
       xlink:href="#rect928"
       inkscape:tiled-clone-of="#rect928"
       y="0"
       x="0"
       width="100%"
       height="100%" />
    <use
       id="use1372"
       transform="translate(26.540001,6.6350003)"
       xlink:href="#rect928"
       inkscape:tiled-clone-of="#rect928"
       y="0"
       x="0"
       width="100%"
       height="100%" />
    <use
       id="use1374"
       transform="translate(26.540001,13.270001)"
       xlink:href="#rect928"
       inkscape:tiled-clone-of="#rect928"
       y="0"
       x="0"
       width="100%"
       height="100%" />
    <use
       id="use1376"
       transform="translate(26.540001,19.905001)"
       xlink:href="#rect928"
       inkscape:tiled-clone-of="#rect928"
       y="0"
       x="0"
       width="100%"
       height="100%" />
    <use
       id="use1380"
       transform="translate(33.175001)"
       xlink:href="#rect928"
       inkscape:tiled-clone-of="#rect928"
       y="0"
       x="0"
       width="100%"
       height="100%" />
    <use
       id="use1382"
       transform="translate(33.175001,6.6350003)"
       xlink:href="#rect928"
       inkscape:tiled-clone-of="#rect928"
       y="0"
       x="0"
       width="100%"
       height="100%" />
    <use
       id="use1384"
       transform="translate(33.175001,13.270001)"
       xlink:href="#rect928"
       inkscape:tiled-clone-of="#rect928"
       y="0"
       x="0"
       width="100%"
       height="100%" />
    <use
       id="use1386"
       transform="translate(33.175001,19.905001)"
       xlink:href="#rect928"
       inkscape:tiled-clone-of="#rect928"
       y="0"
       x="0"
       width="100%"
       height="100%" />
    <use
       id="use1390"
       transform="translate(39.810002)"
       xlink:href="#rect928"
       inkscape:tiled-clone-of="#rect928"
       y="0"
       x="0"
       width="100%"
       height="100%" />
    <use
       id="use1392"
       transform="translate(39.810002,6.6350003)"
       xlink:href="#rect928"
       inkscape:tiled-clone-of="#rect928"
       y="0"
       x="0"
       width="100%"
       height="100%" />
    <use
       id="use1394"
       transform="translate(39.810002,13.270001)"
       xlink:href="#rect928"
       inkscape:tiled-clone-of="#rect928"
       y="0"
       x="0"
       width="100%"
       height="100%" />
    <use
       id="use1396"
       transform="translate(39.810002,19.905001)"
       xlink:href="#rect928"
       inkscape:tiled-clone-of="#rect928"
       y="0"
       x="0"
       width="100%"
       height="100%" />
    <use
       id="use1400"
       transform="translate(46.445002)"
       xlink:href="#rect928"
       inkscape:tiled-clone-of="#rect928"
       y="0"
       x="0"
       width="100%"
       height="100%" />
    <use
       id="use1402"
       transform="translate(46.445002,6.6350003)"
       xlink:href="#rect928"
       inkscape:tiled-clone-of="#rect928"
       y="0"
       x="0"
       width="100%"
       height="100%" />
    <use
       id="use1404"
       transform="translate(46.445002,13.270001)"
       xlink:href="#rect928"
       inkscape:tiled-clone-of="#rect928"
       y="0"
       x="0"
       width="100%"
       height="100%" />
    <use
       id="use1406"
       transform="translate(46.445002,19.905001)"
       xlink:href="#rect928"
       inkscape:tiled-clone-of="#rect928"
       y="0"
       x="0"
       width="100%"
       height="100%" />
    <use
       id="use1410"
       transform="translate(53.080002)"
       xlink:href="#rect928"
       inkscape:tiled-clone-of="#rect928"
       y="0"
       x="0"
       width="100%"
       height="100%" />
    <use
       id="use1412"
       transform="translate(53.080002,6.6350003)"
       xlink:href="#rect928"
       inkscape:tiled-clone-of="#rect928"
       y="0"
       x="0"
       width="100%"
       height="100%" />
    <use
       id="use1414"
       transform="translate(53.080002,13.270001)"
       xlink:href="#rect928"
       inkscape:tiled-clone-of="#rect928"
       y="0"
       x="0"
       width="100%"
       height="100%" />
    <use
       id="use1416"
       transform="translate(53.080002,19.905001)"
       xlink:href="#rect928"
       inkscape:tiled-clone-of="#rect928"
       y="0"
       x="0"
       width="100%"
       height="100%" />
    <use
       id="use1420"
       transform="translate(59.715002)"
       xlink:href="#rect928"
       inkscape:tiled-clone-of="#rect928"
       y="0"
       x="0"
       width="100%"
       height="100%" />
    <use
       id="use1422"
       transform="translate(59.715002,6.6350003)"
       xlink:href="#rect928"
       inkscape:tiled-clone-of="#rect928"
       y="0"
       x="0"
       width="100%"
       height="100%" />
    <use
       id="use1424"
       transform="translate(59.715002,13.270001)"
       xlink:href="#rect928"
       inkscape:tiled-clone-of="#rect928"
       y="0"
       x="0"
       width="100%"
       height="100%" />
    <use
       id="use1426"
       transform="translate(59.715002,19.905001)"
       xlink:href="#rect928"
       inkscape:tiled-clone-of="#rect928"
       y="0"
       x="0"
       width="100%"
       height="100%" />
    <use
       id="use1430"
       transform="translate(66.350003)"
       xlink:href="#rect928"
       inkscape:tiled-clone-of="#rect928"
       y="0"
       x="0"
       width="100%"
       height="100%" />
    <use
       id="use1432"
       transform="translate(66.350003,6.6350003)"
       xlink:href="#rect928"
       inkscape:tiled-clone-of="#rect928"
       y="0"
       x="0"
       width="100%"
       height="100%" />
    <use
       id="use1434"
       transform="translate(66.350003,13.270001)"
       xlink:href="#rect928"
       inkscape:tiled-clone-of="#rect928"
       y="0"
       x="0"
       width="100%"
       height="100%" />
    <use
       id="use1436"
       transform="translate(66.350003,19.905001)"
       xlink:href="#rect928"
       inkscape:tiled-clone-of="#rect928"
       y="0"
       x="0"
       width="100%"
       height="100%" />
    <use
       id="use1440"
       transform="translate(72.985003)"
       xlink:href="#rect928"
       inkscape:tiled-clone-of="#rect928"
       y="0"
       x="0"
       width="100%"
       height="100%" />
    <use
       id="use1442"
       transform="translate(72.985003,6.6350003)"
       xlink:href="#rect928"
       inkscape:tiled-clone-of="#rect928"
       y="0"
       x="0"
       width="100%"
       height="100%" />
    <use
       id="use1444"
       transform="translate(72.985003,13.270001)"
       xlink:href="#rect928"
       inkscape:tiled-clone-of="#rect928"
       y="0"
       x="0"
       width="100%"
       height="100%" />
    <use
       id="use1446"
       transform="translate(72.985003,19.905001)"
       xlink:href="#rect928"
       inkscape:tiled-clone-of="#rect928"
       y="0"
       x="0"
       width="100%"
       height="100%" />
    <use
       id="use1450"
       transform="translate(79.620003)"
       xlink:href="#rect928"
       inkscape:tiled-clone-of="#rect928"
       y="0"
       x="0"
       width="100%"
       height="100%" />
    <use
       id="use1452"
       transform="translate(79.620003,6.6350003)"
       xlink:href="#rect928"
       inkscape:tiled-clone-of="#rect928"
       y="0"
       x="0"
       width="100%"
       height="100%" />
    <use
       id="use1454"
       transform="translate(79.620003,13.270001)"
       xlink:href="#rect928"
       inkscape:tiled-clone-of="#rect928"
       y="0"
       x="0"
       width="100%"
       height="100%" />
    <use
       id="use1456"
       transform="translate(79.620003,19.905001)"
       xlink:href="#rect928"
       inkscape:tiled-clone-of="#rect928"
       y="0"
       x="0"
       width="100%"
       height="100%" />
    <use
       id="use1460"
       transform="translate(86.255003)"
       xlink:href="#rect928"
       inkscape:tiled-clone-of="#rect928"
       y="0"
       x="0"
       width="100%"
       height="100%" />
    <use
       id="use1462"
       transform="translate(86.255003,6.6350003)"
       xlink:href="#rect928"
       inkscape:tiled-clone-of="#rect928"
       y="0"
       x="0"
       width="100%"
       height="100%" />
    <use
       id="use1464"
       transform="translate(86.255003,13.270001)"
       xlink:href="#rect928"
       inkscape:tiled-clone-of="#rect928"
       y="0"
       x="0"
       width="100%"
       height="100%" />
    <use
       id="use1466"
       transform="translate(86.255003,19.905001)"
       xlink:href="#rect928"
       inkscape:tiled-clone-of="#rect928"
       y="0"
       x="0"
       width="100%"
       height="100%" />
    <use
       id="use1470"
       transform="translate(92.890004)"
       xlink:href="#rect928"
       inkscape:tiled-clone-of="#rect928"
       y="0"
       x="0"
       width="100%"
       height="100%" />
    <use
       id="use1472"
       transform="translate(92.890004,6.6350003)"
       xlink:href="#rect928"
       inkscape:tiled-clone-of="#rect928"
       y="0"
       x="0"
       width="100%"
       height="100%" />
    <use
       id="use1474"
       transform="translate(92.890004,13.270001)"
       xlink:href="#rect928"
       inkscape:tiled-clone-of="#rect928"
       y="0"
       x="0"
       width="100%"
       height="100%" />
    <use
       id="use1476"
       transform="translate(92.890004,19.905001)"
       xlink:href="#rect928"
       inkscape:tiled-clone-of="#rect928"
       y="0"
       x="0"
       width="100%"
       height="100%" />
    <use
       id="use1480"
       transform="translate(99.525004)"
       xlink:href="#rect928"
       inkscape:tiled-clone-of="#rect928"
       y="0"
       x="0"
       width="100%"
       height="100%" />
    <use
       id="use1482"
       transform="translate(99.525004,6.6350003)"
       xlink:href="#rect928"
       inkscape:tiled-clone-of="#rect928"
       y="0"
       x="0"
       width="100%"
       height="100%" />
    <use
       id="use1484"
       transform="translate(99.525004,13.270001)"
       xlink:href="#rect928"
       inkscape:tiled-clone-of="#rect928"
       y="0"
       x="0"
       width="100%"
       height="100%" />
    <use
       id="use1486"
       transform="translate(99.525004,19.905001)"
       xlink:href="#rect928"
       inkscape:tiled-clone-of="#rect928"
       y="0"
       x="0"
       width="100%"
       height="100%" />
    <use
       id="use1490"
       transform="translate(106.16)"
       xlink:href="#rect928"
       inkscape:tiled-clone-of="#rect928"
       y="0"
       x="0"
       width="100%"
       height="100%" />
    <use
       id="use1492"
       transform="translate(106.16,6.6350003)"
       xlink:href="#rect928"
       inkscape:tiled-clone-of="#rect928"
       y="0"
       x="0"
       width="100%"
       height="100%" />
    <use
       id="use1494"
       transform="translate(106.16,13.270001)"
       xlink:href="#rect928"
       inkscape:tiled-clone-of="#rect928"
       y="0"
       x="0"
       width="100%"
       height="100%" />
    <use
       id="use1496"
       transform="translate(106.16,19.905001)"
       xlink:href="#rect928"
       inkscape:tiled-clone-of="#rect928"
       y="0"
       x="0"
       width="100%"
       height="100%" />
    <use
       id="use1500"
       transform="translate(112.795)"
       xlink:href="#rect928"
       inkscape:tiled-clone-of="#rect928"
       y="0"
       x="0"
       width="100%"
       height="100%" />
    <use
       id="use1502"
       transform="translate(112.795,6.6350003)"
       xlink:href="#rect928"
       inkscape:tiled-clone-of="#rect928"
       y="0"
       x="0"
       width="100%"
       height="100%" />
    <use
       id="use1504"
       transform="translate(112.795,13.270001)"
       xlink:href="#rect928"
       inkscape:tiled-clone-of="#rect928"
       y="0"
       x="0"
       width="100%"
       height="100%" />
    <use
       id="use1506"
       transform="translate(112.795,19.905001)"
       xlink:href="#rect928"
       inkscape:tiled-clone-of="#rect928"
       y="0"
       x="0"
       width="100%"
       height="100%" />
    <use
       id="use1510"
       transform="translate(119.43)"
       xlink:href="#rect928"
       inkscape:tiled-clone-of="#rect928"
       y="0"
       x="0"
       width="100%"
       height="100%" />
    <use
       id="use1512"
       transform="translate(119.43,6.6350003)"
       xlink:href="#rect928"
       inkscape:tiled-clone-of="#rect928"
       y="0"
       x="0"
       width="100%"
       height="100%" />
    <use
       id="use1514"
       transform="translate(119.43,13.270001)"
       xlink:href="#rect928"
       inkscape:tiled-clone-of="#rect928"
       y="0"
       x="0"
       width="100%"
       height="100%" />
    <use
       id="use1516"
       transform="translate(119.43,19.905001)"
       xlink:href="#rect928"
       inkscape:tiled-clone-of="#rect928"
       y="0"
       x="0"
       width="100%"
       height="100%" />
    <use
       id="use1520"
       transform="translate(126.065)"
       xlink:href="#rect928"
       inkscape:tiled-clone-of="#rect928"
       y="0"
       x="0"
       width="100%"
       height="100%" />
    <use
       id="use1522"
       transform="translate(126.065,6.6350003)"
       xlink:href="#rect928"
       inkscape:tiled-clone-of="#rect928"
       y="0"
       x="0"
       width="100%"
       height="100%" />
    <use
       id="use1524"
       transform="translate(126.065,13.270001)"
       xlink:href="#rect928"
       inkscape:tiled-clone-of="#rect928"
       y="0"
       x="0"
       width="100%"
       height="100%" />
    <use
       id="use1526"
       transform="translate(126.065,19.905001)"
       xlink:href="#rect928"
       inkscape:tiled-clone-of="#rect928"
       y="0"
       x="0"
       width="100%"
       height="100%" />
    <use
       id="use1530"
       transform="translate(132.70001)"
       xlink:href="#rect928"
       inkscape:tiled-clone-of="#rect928"
       y="0"
       x="0"
       width="100%"
       height="100%" />
    <use
       id="use1532"
       transform="translate(132.70001,6.6350003)"
       xlink:href="#rect928"
       inkscape:tiled-clone-of="#rect928"
       y="0"
       x="0"
       width="100%"
       height="100%" />
    <use
       id="use1534"
       transform="translate(132.70001,13.270001)"
       xlink:href="#rect928"
       inkscape:tiled-clone-of="#rect928"
       y="0"
       x="0"
       width="100%"
       height="100%" />
    <use
       id="use1536"
       transform="translate(132.70001,19.905001)"
       xlink:href="#rect928"
       inkscape:tiled-clone-of="#rect928"
       y="0"
       x="0"
       width="100%"
       height="100%" />
    <use
       id="use1540"
       transform="translate(139.33501)"
       xlink:href="#rect928"
       inkscape:tiled-clone-of="#rect928"
       y="0"
       x="0"
       width="100%"
       height="100%" />
    <use
       id="use1542"
       transform="translate(139.33501,6.6350003)"
       xlink:href="#rect928"
       inkscape:tiled-clone-of="#rect928"
       y="0"
       x="0"
       width="100%"
       height="100%" />
    <use
       id="use1544"
       transform="translate(139.33501,13.270001)"
       xlink:href="#rect928"
       inkscape:tiled-clone-of="#rect928"
       y="0"
       x="0"
       width="100%"
       height="100%" />
    <use
       id="use1546"
       transform="translate(139.33501,19.905001)"
       xlink:href="#rect928"
       inkscape:tiled-clone-of="#rect928"
       y="0"
       x="0"
       width="100%"
       height="100%" />
    <use
       id="use1550"
       transform="translate(145.97001)"
       xlink:href="#rect928"
       inkscape:tiled-clone-of="#rect928"
       y="0"
       x="0"
       width="100%"
       height="100%" />
    <use
       id="use1552"
       transform="translate(145.97001,6.6350003)"
       xlink:href="#rect928"
       inkscape:tiled-clone-of="#rect928"
       y="0"
       x="0"
       width="100%"
       height="100%" />
    <use
       id="use1554"
       transform="translate(145.97001,13.270001)"
       xlink:href="#rect928"
       inkscape:tiled-clone-of="#rect928"
       y="0"
       x="0"
       width="100%"
       height="100%" />
    <use
       id="use1556"
       transform="translate(145.97001,19.905001)"
       xlink:href="#rect928"
       inkscape:tiled-clone-of="#rect928"
       y="0"
       x="0"
       width="100%"
       height="100%" />
    <use
       id="use1560"
       transform="translate(152.60501)"
       xlink:href="#rect928"
       inkscape:tiled-clone-of="#rect928"
       y="0"
       x="0"
       width="100%"
       height="100%" />
    <use
       id="use1562"
       transform="translate(152.60501,6.6350003)"
       xlink:href="#rect928"
       inkscape:tiled-clone-of="#rect928"
       y="0"
       x="0"
       width="100%"
       height="100%" />
    <use
       id="use1564"
       transform="translate(152.60501,13.270001)"
       xlink:href="#rect928"
       inkscape:tiled-clone-of="#rect928"
       y="0"
       x="0"
       width="100%"
       height="100%" />
    <use
       id="use1566"
       transform="translate(152.60501,19.905001)"
       xlink:href="#rect928"
       inkscape:tiled-clone-of="#rect928"
       y="0"
       x="0"
       width="100%"
       height="100%" />
    <use
       id="use1570"
       transform="translate(159.24001)"
       xlink:href="#rect928"
       inkscape:tiled-clone-of="#rect928"
       y="0"
       x="0"
       width="100%"
       height="100%" />
    <use
       id="use1572"
       transform="translate(159.24001,6.6350003)"
       xlink:href="#rect928"
       inkscape:tiled-clone-of="#rect928"
       y="0"
       x="0"
       width="100%"
       height="100%" />
    <use
       id="use1574"
       transform="translate(159.24001,13.270001)"
       xlink:href="#rect928"
       inkscape:tiled-clone-of="#rect928"
       y="0"
       x="0"
       width="100%"
       height="100%" />
    <use
       id="use1576"
       transform="translate(159.24001,19.905001)"
       xlink:href="#rect928"
       inkscape:tiled-clone-of="#rect928"
       y="0"
       x="0"
       width="100%"
       height="100%" />
  </g>
</svg>
